<svg width="48" height="151" viewBox="0 0 48 151" fill="none" xmlns="http://www.w3.org/2000/svg">
<g filter="url(#filter0_b_16_405)">
<path d="M47.9996 0C47.9996 0 21.8468 8.92495 20.2613 9.63221C14.2592 12.286 9.14962 16.6408 5.55296 22.1679C1.9563 27.695 0.0273886 34.1566 0 40.7685V111.326V151C0 151 26.086 142.075 27.755 141.368C33.7391 138.717 38.8358 134.377 42.4308 128.871C46.0257 123.364 47.9655 116.926 48.0163 110.333V70.3555L47.9996 0Z" fill="url(#paint0_linear_16_405)" fill-opacity="0.6"/>
<path d="M47.9996 0C47.9996 0 21.8468 8.92495 20.2613 9.63221C14.2592 12.286 9.14962 16.6408 5.55296 22.1679C1.9563 27.695 0.0273886 34.1566 0 40.7685V111.326V151C0 151 26.086 142.075 27.755 141.368C33.7391 138.717 38.8358 134.377 42.4308 128.871C46.0257 123.364 47.9655 116.926 48.0163 110.333V70.3555L47.9996 0Z" fill="#60AAFB" fill-opacity="0.2"/>
<path d="M0.962131 150.142L0.5 150.3V111.326V40.7695C0.527188 34.2538 2.42815 27.8866 5.97204 22.4406C9.5161 16.9944 14.5505 12.7039 20.4635 10.0895L20.465 10.0888C20.8367 9.92305 22.7388 9.24247 25.4295 8.30073C28.1031 7.36498 31.5199 6.18338 34.8878 5.02364C38.2556 3.86395 41.574 2.72633 44.0504 1.87863C45.2886 1.45478 46.3163 1.10341 47.0344 0.858014L47.4998 0.699053L47.5163 70.3555V70.3557V110.331C47.4658 116.828 45.5542 123.172 42.0121 128.598C38.4704 134.022 33.4501 138.298 27.5565 140.909C26.7273 141.259 19.8262 143.654 13.0887 145.976C9.72397 147.136 6.41131 148.274 3.9398 149.121C2.70406 149.545 1.67862 149.897 0.962131 150.142Z" stroke="url(#paint1_linear_16_405)" stroke-opacity="0.6"/>
<path d="M0.962131 150.142L0.5 150.3V111.326V40.7695C0.527188 34.2538 2.42815 27.8866 5.97204 22.4406C9.5161 16.9944 14.5505 12.7039 20.4635 10.0895L20.465 10.0888C20.8367 9.92305 22.7388 9.24247 25.4295 8.30073C28.1031 7.36498 31.5199 6.18338 34.8878 5.02364C38.2556 3.86395 41.574 2.72633 44.0504 1.87863C45.2886 1.45478 46.3163 1.10341 47.0344 0.858014L47.4998 0.699053L47.5163 70.3555V70.3557V110.331C47.4658 116.828 45.5542 123.172 42.0121 128.598C38.4704 134.022 33.4501 138.298 27.5565 140.909C26.7273 141.259 19.8262 143.654 13.0887 145.976C9.72397 147.136 6.41131 148.274 3.9398 149.121C2.70406 149.545 1.67862 149.897 0.962131 150.142Z" stroke="url(#paint2_linear_16_405)"/>
</g>
<defs>
<filter id="filter0_b_16_405" x="-26" y="-26" width="100.016" height="203" filterUnits="userSpaceOnUse" color-interpolation-filters="sRGB">
<feFlood flood-opacity="0" result="BackgroundImageFix"/>
<feGaussianBlur in="BackgroundImage" stdDeviation="13"/>
<feComposite in2="SourceAlpha" operator="in" result="effect1_backgroundBlur_16_405"/>
<feBlend mode="normal" in="SourceGraphic" in2="effect1_backgroundBlur_16_405" result="shape"/>
</filter>
<linearGradient id="paint0_linear_16_405" x1="24.0082" y1="0" x2="80.5248" y2="13.3471" gradientUnits="userSpaceOnUse">
<stop stop-color="white" stop-opacity="0.2"/>
<stop offset="1" stop-color="white" stop-opacity="0"/>
</linearGradient>
<linearGradient id="paint1_linear_16_405" x1="57.224" y1="60.3648" x2="40.8121" y2="60.5304" gradientUnits="userSpaceOnUse">
<stop stop-color="white"/>
<stop offset="1" stop-color="#EFEFEF" stop-opacity="0"/>
</linearGradient>
<linearGradient id="paint2_linear_16_405" x1="0" y1="0" x2="24.2288" y2="4.09533" gradientUnits="userSpaceOnUse">
<stop stop-color="white" stop-opacity="0.5"/>
<stop offset="1" stop-color="white" stop-opacity="0"/>
</linearGradient>
</defs>
</svg>
