<svg width="23" height="46" viewBox="0 0 23 46" fill="none" xmlns="http://www.w3.org/2000/svg">
<g filter="url(#filter0_b_16_411)">
<path d="M9.70854 4.4769C6.83871 5.70982 4.39466 7.73134 2.67173 10.2971C0.948795 12.8628 0.0208388 15.8629 0 18.9347V20.3774V46.0314C0 46.0314 12.5235 41.8759 13.2913 41.5545C16.1599 40.3199 18.6029 38.298 20.3255 35.7326C22.0482 33.1672 22.977 30.168 22.9998 27.0966V26.5164V0C22.9998 0 10.4683 4.15545 9.70854 4.4769Z" fill="url(#paint0_linear_16_411)" fill-opacity="0.6"/>
<path d="M9.70854 4.4769C6.83871 5.70982 4.39466 7.73134 2.67173 10.2971C0.948795 12.8628 0.0208388 15.8629 0 18.9347V20.3774V46.0314C0 46.0314 12.5235 41.8759 13.2913 41.5545C16.1599 40.3199 18.6029 38.298 20.3255 35.7326C22.0482 33.1672 22.977 30.168 22.9998 27.0966V26.5164V0C22.9998 0 10.4683 4.15545 9.70854 4.4769Z" fill="#60AAFB" fill-opacity="0.2"/>
<path d="M21.1877 1.12877C21.7163 0.952976 22.1649 0.803958 22.4998 0.692757V26.5164V27.0947C22.4774 30.0668 21.5785 32.9698 19.9105 35.4539C18.2425 37.9378 15.8763 39.8971 13.096 41.0942C12.7239 41.2489 9.43779 42.3563 6.19917 43.4393C4.58607 43.9787 2.9969 44.5081 1.81096 44.9026C1.28281 45.0783 0.834655 45.2273 0.5 45.3385V20.3774V18.9364C0.520496 15.964 1.41856 13.0602 3.08682 10.5758C4.7552 8.09132 7.12273 6.13231 9.90449 4.93691C10.2664 4.78438 13.554 3.67642 16.7976 2.59211C18.4112 2.0527 20.0011 1.52332 21.1877 1.12877Z" stroke="url(#paint1_linear_16_411)" stroke-opacity="0.6"/>
<path d="M21.1877 1.12877C21.7163 0.952976 22.1649 0.803958 22.4998 0.692757V26.5164V27.0947C22.4774 30.0668 21.5785 32.9698 19.9105 35.4539C18.2425 37.9378 15.8763 39.8971 13.096 41.0942C12.7239 41.2489 9.43779 42.3563 6.19917 43.4393C4.58607 43.9787 2.9969 44.5081 1.81096 44.9026C1.28281 45.0783 0.834655 45.2273 0.5 45.3385V20.3774V18.9364C0.520496 15.964 1.41856 13.0602 3.08682 10.5758C4.7552 8.09132 7.12273 6.13231 9.90449 4.93691C10.2664 4.78438 13.554 3.67642 16.7976 2.59211C18.4112 2.0527 20.0011 1.52332 21.1877 1.12877Z" stroke="url(#paint2_linear_16_411)"/>
</g>
<defs>
<filter id="filter0_b_16_411" x="-26" y="-26" width="75" height="98.0312" filterUnits="userSpaceOnUse" color-interpolation-filters="sRGB">
<feFlood flood-opacity="0" result="BackgroundImageFix"/>
<feGaussianBlur in="BackgroundImage" stdDeviation="13"/>
<feComposite in2="SourceAlpha" operator="in" result="effect1_backgroundBlur_16_411"/>
<feBlend mode="normal" in="SourceGraphic" in2="effect1_backgroundBlur_16_411" result="shape"/>
</filter>
<linearGradient id="paint0_linear_16_411" x1="11.4999" y1="0" x2="36.6219" y2="9.32231" gradientUnits="userSpaceOnUse">
<stop stop-color="white" stop-opacity="0.2"/>
<stop offset="1" stop-color="white" stop-opacity="0"/>
</linearGradient>
<linearGradient id="paint1_linear_16_411" x1="27.4103" y1="18.4018" x2="19.5502" y2="18.5265" gradientUnits="userSpaceOnUse">
<stop stop-color="white"/>
<stop offset="1" stop-color="#EFEFEF" stop-opacity="0"/>
</linearGradient>
<linearGradient id="paint2_linear_16_411" x1="0" y1="0" x2="11.1506" y2="2.96152" gradientUnits="userSpaceOnUse">
<stop stop-color="white" stop-opacity="0.5"/>
<stop offset="1" stop-color="white" stop-opacity="0"/>
</linearGradient>
</defs>
</svg>
