<svg> 
    <symbol id="nav1"  viewBox="0 0 9 16" fill="none" xmlns="http://www.w3.org/2000/svg">
    <path d="M8 0.5L0.5 8L8 15.5" stroke="black" stroke-linecap="round" stroke-linejoin="round"/>
    </symbol>

    <symbol id="nav2" viewBox="0 0 9 16" fill="none" xmlns="http://www.w3.org/2000/svg">
    <path d="M1 0.5L8.5 8L1 15.5" stroke="black" stroke-linecap="round" stroke-linejoin="round"/>
    </symbol>

    <symbol id="logo-mobile" viewBox="0 0 159 32" fill="none" xmlns="http://www.w3.org/2000/svg">
    <g clip-path="url(#clip0_32_1093)">
    <path d="M2.9748e-05 19.8394V8.00201C-0.0030401 7.90192 0.014561 7.80226 0.0517241 7.70914C0.0888871 7.61602 0.144841 7.53141 0.216165 7.46047C0.285879 7.39071 0.369184 7.33573 0.461022 7.2989C0.552861 7.26208 0.651309 7.24417 0.750356 7.24627H3.49879C3.59917 7.2433 3.69909 7.26078 3.79238 7.29762C3.88567 7.33446 3.97034 7.3899 4.04115 7.46047C4.11043 7.53248 4.1645 7.61748 4.20021 7.71047C4.23592 7.80346 4.25253 7.90257 4.24909 8.00201V12.3587H9.62366V8.00201C9.62025 7.90185 9.63764 7.80206 9.67475 7.70884C9.71187 7.61562 9.76789 7.53097 9.83939 7.4601C9.91089 7.38924 9.99634 7.33369 10.0904 7.29691C10.1845 7.26012 10.2851 7.24289 10.3862 7.24627H13.1224C13.2222 7.24288 13.3217 7.2602 13.4143 7.29708C13.507 7.33396 13.5909 7.38961 13.6607 7.46047C13.7305 7.53229 13.7852 7.61715 13.8216 7.71013C13.858 7.8031 13.8754 7.90231 13.8727 8.00201V19.8394C13.8768 19.9379 13.8601 20.0362 13.8238 20.128C13.7875 20.2198 13.7323 20.3032 13.6617 20.3727C13.5912 20.4423 13.5068 20.4965 13.4139 20.532C13.3211 20.5675 13.2218 20.5835 13.1224 20.5789H10.3862C10.2855 20.5825 10.1851 20.5657 10.0912 20.5296C9.99723 20.4935 9.91168 20.4387 9.83977 20.3688C9.76938 20.2997 9.71393 20.2171 9.67677 20.1261C9.63961 20.0351 9.62154 19.9375 9.62366 19.8394V15.3008H4.24909V19.8394C4.25251 19.9383 4.23506 20.0368 4.19785 20.1287C4.16063 20.2205 4.10448 20.3037 4.03298 20.3728C3.96231 20.4407 3.87865 20.494 3.7869 20.5294C3.69516 20.5648 3.5972 20.5816 3.49879 20.5789H0.750356C0.65059 20.5827 0.551083 20.5664 0.457862 20.531C0.364641 20.4955 0.279637 20.4417 0.208002 20.3728C0.138574 20.3026 0.0843203 20.219 0.0485632 20.1273C0.0128061 20.0356 -0.00370732 19.9376 2.9748e-05 19.8394Z" fill="black"/>
    <path d="M19.5039 21.8439L21.1106 22.054C22.266 22.054 23.072 21.2148 23.5287 19.5362C22.2495 19.5767 21.0032 19.1298 20.0463 18.2874C19.1138 17.4549 18.3119 15.973 17.6404 13.8418L15.8054 7.97773C15.7796 7.90506 15.7672 7.82842 15.7687 7.75141C15.7845 7.63481 15.839 7.52674 15.9236 7.44426C15.9807 7.37931 16.0517 7.32783 16.1314 7.29357C16.2112 7.25931 16.2976 7.24313 16.3844 7.24624H18.9494C19.1965 7.2503 19.4355 7.33401 19.6304 7.48469C19.8286 7.63104 19.9721 7.83862 20.0381 8.07472L21.6448 13.2316C21.8905 14.174 22.3048 15.0652 22.8681 15.8626C23.0412 16.0861 23.2633 16.2678 23.5176 16.3939C23.7719 16.5199 24.0518 16.5869 24.3361 16.59L26.7828 8.07472C26.8466 7.84279 26.9821 7.63649 27.1702 7.48469C27.3492 7.33121 27.5778 7.24658 27.8145 7.24624H30.4039C30.49 7.23956 30.5764 7.25415 30.6554 7.28871C30.7344 7.32327 30.8035 7.37672 30.8565 7.44426C30.9398 7.53204 30.9927 7.64392 31.0074 7.76355C31.009 7.83571 31.0007 7.90774 30.9829 7.97773L27.7656 19.3382C27.192 21.3508 26.4824 22.7869 25.6369 23.6463C25.2127 24.0731 24.7037 24.408 24.1422 24.6299C23.5807 24.8518 22.9789 24.9559 22.3747 24.9355C21.4304 24.9586 20.4856 24.91 19.5488 24.7901C19.1765 24.7621 18.818 24.6381 18.509 24.4304C18.4428 24.3661 18.3903 24.2894 18.3546 24.2047C18.3189 24.12 18.3007 24.0291 18.301 23.9373V22.5996C18.2976 22.5002 18.3142 22.401 18.3499 22.3081C18.3856 22.2151 18.4397 22.1301 18.509 22.0581C18.5796 21.9873 18.6643 21.9317 18.7576 21.8949C18.8509 21.858 18.9509 21.8406 19.0513 21.8439H19.5039Z" fill="black"/>
    <path d="M32.7732 23.9454V8.00201C32.7701 7.90192 32.7877 7.80226 32.8249 7.70914C32.8621 7.61602 32.918 7.53141 32.9893 7.46047C33.0588 7.39032 33.142 7.33509 33.2339 7.29824C33.3258 7.26139 33.4244 7.24369 33.5235 7.24627H35.8927C35.9926 7.24454 36.0918 7.26303 36.1842 7.30061C36.2766 7.33819 36.3603 7.39407 36.4301 7.46481C36.5 7.53556 36.5545 7.6197 36.5904 7.71207C36.6264 7.80445 36.6429 7.9031 36.639 8.00201V8.36575C37.9521 7.45488 39.522 6.97823 41.1246 7.00379C41.9258 6.98542 42.7217 7.13587 43.4599 7.4452C44.198 7.75454 44.8614 8.21571 45.4063 8.79818C46.5535 9.99444 47.1271 11.7053 47.1271 13.9308C47.1271 16.1562 46.5331 17.8617 45.3451 19.0472C44.1571 20.23 42.5572 20.8228 40.5455 20.8255C39.3382 20.795 38.1423 20.5852 36.9978 20.2031V23.9454C37.0014 24.0452 36.9845 24.1447 36.948 24.2378C36.9116 24.3309 36.8564 24.4157 36.7858 24.487C36.7161 24.5568 36.6327 24.6117 36.5409 24.6485C36.4491 24.6854 36.3506 24.7033 36.2516 24.7012H33.5032C33.404 24.7037 33.3055 24.6861 33.2135 24.6492C33.1216 24.6124 33.0384 24.5571 32.969 24.487C32.9013 24.4144 32.8491 24.329 32.8154 24.236C32.7818 24.1429 32.7675 24.0441 32.7732 23.9454ZM37.0101 17.3943C37.8691 17.6905 38.768 17.8581 39.6769 17.8914C40.7997 17.8914 41.5949 17.5748 42.0625 16.9416C42.53 16.3085 42.7652 15.2995 42.7679 13.9146C42.7679 12.5284 42.5477 11.5181 42.0991 10.8916C41.8738 10.5788 41.5716 10.3282 41.2213 10.1634C40.8709 9.99864 40.4839 9.92518 40.0969 9.94998C39.2121 9.94998 38.1804 10.3137 37.0101 11.0452V17.3943Z" fill="black"/>
    <path d="M77.5148 19.8394V8.00201C77.5112 7.9022 77.5281 7.80271 77.5646 7.70961C77.601 7.6165 77.6562 7.53175 77.7268 7.46047C77.7965 7.39071 77.8798 7.33573 77.9717 7.2989C78.0635 7.26208 78.162 7.24417 78.261 7.24627H80.8259C80.927 7.24289 81.0277 7.26012 81.1218 7.29691C81.2158 7.33369 81.3012 7.38924 81.3727 7.4601C81.4442 7.53097 81.5003 7.61562 81.5374 7.70884C81.5745 7.80206 81.5919 7.90185 81.5885 8.00201V15.996L85.9069 8.12325C86.0478 7.86464 86.2563 7.6483 86.5104 7.49683C86.7436 7.34134 87.0164 7.25447 87.2974 7.24627H90.7309C90.832 7.24289 90.9326 7.26012 91.0267 7.29691C91.1208 7.33369 91.2062 7.38924 91.2777 7.4601C91.3492 7.53097 91.4053 7.61562 91.4424 7.70884C91.4795 7.80206 91.4969 7.90185 91.4935 8.00201V19.8394C91.4969 19.9383 91.4794 20.0368 91.4422 20.1287C91.405 20.2205 91.3488 20.3037 91.2773 20.3728C91.2049 20.4418 91.1193 20.4957 91.0254 20.5311C90.9315 20.5665 90.8313 20.5828 90.7309 20.5789H88.166C88.0664 20.5828 87.9672 20.5662 87.8745 20.53C87.7818 20.4938 87.6978 20.4389 87.6277 20.3688C87.5592 20.2987 87.5055 20.2158 87.4698 20.1249C87.4341 20.034 87.417 19.9369 87.4198 19.8394V11.8575L83.0891 19.706C82.9436 19.9567 82.7377 20.1678 82.4897 20.3203C82.2582 20.4803 81.9848 20.5701 81.7027 20.5789H78.2529C78.1536 20.5835 78.0545 20.5676 77.9619 20.532C77.8692 20.4965 77.7851 20.4422 77.7149 20.3726C77.6446 20.3029 77.5898 20.2196 77.5539 20.1277C77.5181 20.0359 77.502 19.9377 77.5066 19.8394H77.5148Z" fill="black"/>
    <path d="M94.5073 19.8394V8.00203C94.5042 7.90193 94.5218 7.80228 94.5589 7.70916C94.5961 7.61604 94.6521 7.53142 94.7234 7.46049C94.7931 7.39073 94.8764 7.33575 94.9683 7.29892C95.0601 7.2621 95.1585 7.24419 95.2576 7.24628H98.006C98.1065 7.24258 98.2066 7.25972 98.3 7.2966C98.3934 7.33349 98.478 7.38932 98.5484 7.46049C98.6177 7.5325 98.6717 7.6175 98.7074 7.71049C98.7431 7.80348 98.7598 7.90259 98.7563 8.00203V12.3587H104.131V8.00203C104.127 7.90187 104.145 7.80208 104.182 7.70886C104.219 7.61564 104.275 7.53098 104.347 7.46012C104.418 7.38926 104.504 7.33371 104.598 7.29692C104.692 7.26014 104.792 7.2429 104.893 7.24628H107.63C107.73 7.24332 107.83 7.2608 107.923 7.29764C108.016 7.33448 108.101 7.38992 108.172 7.46049C108.241 7.5325 108.295 7.6175 108.331 7.71049C108.367 7.80348 108.383 7.90259 108.38 8.00203V19.8394C108.384 19.9376 108.367 20.0356 108.331 20.1273C108.296 20.2191 108.241 20.3026 108.172 20.3728C108.1 20.4414 108.015 20.4949 107.922 20.5303C107.829 20.5657 107.729 20.5823 107.63 20.5789H104.893C104.793 20.5825 104.692 20.5657 104.598 20.5296C104.504 20.4935 104.419 20.4388 104.347 20.3688C104.277 20.2997 104.221 20.2171 104.184 20.1261C104.147 20.0351 104.129 19.9375 104.131 19.8394V15.3008H98.7482V19.8394C98.7516 19.9383 98.7341 20.0368 98.6969 20.1287C98.6597 20.2206 98.6035 20.3037 98.532 20.3728C98.4617 20.4411 98.3781 20.4946 98.2862 20.53C98.1944 20.5655 98.0963 20.5821 97.9979 20.5789H95.2494C95.1503 20.5826 95.0514 20.5663 94.9588 20.5308C94.8663 20.4954 94.782 20.4416 94.7112 20.3728C94.6419 20.3027 94.588 20.219 94.5529 20.1272C94.5178 20.0354 94.5023 19.9374 94.5073 19.8394Z" fill="black"/>
    <path d="M112.254 19.706C111.732 19.3608 111.307 18.8886 111.022 18.3346C110.736 17.7806 110.599 17.1632 110.623 16.5415C110.597 15.923 110.734 15.3084 111.02 14.758C111.306 14.2076 111.731 13.7401 112.254 13.4013C113.508 12.6277 114.969 12.2474 116.446 12.3102H120.524C120.524 11.3591 120.322 10.6976 119.92 10.3258C119.512 9.95401 118.819 9.76406 117.816 9.76406C116.813 9.76406 116.111 10.0106 115.704 10.5036C115.53 10.7323 115.305 10.9179 115.047 11.0455C114.789 11.1732 114.504 11.2395 114.215 11.2392H112.384C112.283 11.2422 112.183 11.2248 112.089 11.188C111.995 11.1512 111.909 11.0957 111.838 11.025C111.767 10.9559 111.712 10.8733 111.675 10.7823C111.638 10.6913 111.62 10.5937 111.622 10.4956C111.622 8.1677 113.852 7.00378 118.313 7.00378C120.263 7.00378 121.826 7.4362 123.003 8.30107C124.18 9.16593 124.768 10.5023 124.768 12.3102V19.8394C124.773 19.9377 124.757 20.0359 124.721 20.1277C124.685 20.2196 124.63 20.3029 124.56 20.3726C124.49 20.4422 124.406 20.4965 124.313 20.532C124.221 20.5676 124.121 20.5835 124.022 20.5789H121.653C121.553 20.5834 121.453 20.567 121.359 20.5308C121.266 20.4946 121.181 20.4394 121.111 20.3688C121.042 20.2987 120.988 20.2158 120.953 20.1249C120.917 20.034 120.9 19.9369 120.903 19.8394V19.4595C119.595 20.3827 118.022 20.8632 116.417 20.8295C114.946 20.8858 113.493 20.4937 112.254 19.706ZM115.385 15.4827C115.227 15.6147 115.099 15.7795 115.012 15.9656C114.924 16.1517 114.879 16.3544 114.879 16.5597C114.879 16.765 114.924 16.9678 115.012 17.1539C115.099 17.3399 115.227 17.5048 115.385 17.6368C115.806 17.9444 116.323 18.0946 116.845 18.0611C118.142 18.0513 119.407 17.671 120.491 16.9659V15.0543H116.723C116.24 15.0355 115.766 15.1873 115.385 15.4827Z" fill="black"/>
    <path d="M127.778 19.8394V8.00203C127.774 7.90222 127.791 7.80273 127.827 7.70963C127.864 7.61652 127.919 7.53176 127.99 7.46049C128.059 7.39073 128.143 7.33575 128.235 7.29892C128.326 7.2621 128.425 7.24419 128.524 7.24628H131.276C131.376 7.2429 131.476 7.26021 131.568 7.2971C131.661 7.33398 131.745 7.38963 131.815 7.46049C131.884 7.5325 131.938 7.6175 131.974 7.71049C132.009 7.80348 132.026 7.90259 132.023 8.00203V12.3587H137.401V8.00203C137.397 7.90207 137.414 7.80237 137.451 7.70916C137.487 7.61595 137.543 7.53124 137.614 7.46032C137.685 7.38939 137.771 7.33377 137.865 7.29695C137.958 7.26012 138.059 7.24287 138.16 7.24628H140.896C140.996 7.24258 141.097 7.25972 141.19 7.2966C141.283 7.33349 141.368 7.38932 141.438 7.46049C141.508 7.5325 141.562 7.6175 141.597 7.71049C141.633 7.80348 141.65 7.90259 141.646 8.00203V19.8394C141.651 19.9381 141.635 20.0367 141.599 20.1288C141.563 20.2209 141.507 20.3044 141.437 20.3741C141.366 20.4438 141.281 20.498 141.188 20.5333C141.095 20.5686 140.996 20.5841 140.896 20.5789H138.16C138.059 20.5825 137.959 20.5657 137.865 20.5296C137.771 20.4935 137.685 20.4388 137.613 20.3688C137.543 20.2995 137.489 20.2168 137.452 20.1258C137.416 20.0347 137.398 19.9373 137.401 19.8394V15.3008H132.023V19.8394C132.027 19.9384 132.01 20.0372 131.972 20.1291C131.935 20.2211 131.879 20.3042 131.807 20.3728C131.737 20.4406 131.654 20.4938 131.563 20.5292C131.472 20.5646 131.374 20.5815 131.276 20.5789H128.524C128.425 20.5835 128.326 20.5676 128.233 20.532C128.14 20.4965 128.056 20.4422 127.986 20.3726C127.916 20.303 127.861 20.2196 127.825 20.1278C127.789 20.0359 127.773 19.9377 127.778 19.8394Z" fill="black"/>
    <path d="M151.189 20.8255C148.892 20.8255 147.105 20.2408 145.83 19.0715C144.555 17.9022 143.918 16.1846 143.918 13.9187C143.918 11.6528 144.551 9.93381 145.818 8.76179C147.085 7.58978 148.852 7.00378 151.119 7.00378C153.381 7.00378 155.121 7.36076 156.339 8.07475C156.909 8.38281 157.381 8.84203 157.702 9.40094C158.023 9.95985 158.181 10.5964 158.158 11.2392C158.162 11.3378 158.145 11.4362 158.108 11.528C158.072 11.6199 158.016 11.7032 157.946 11.7727C157.873 11.8413 157.787 11.8949 157.693 11.9303C157.6 11.9657 157.499 11.9822 157.399 11.9788H155.568C155.275 11.9668 154.991 11.8786 154.743 11.7233C154.496 11.568 154.294 11.3508 154.157 11.0937C153.676 10.3285 152.824 9.94728 151.601 9.94998C150.377 9.94998 149.521 10.2571 149.036 10.8795C148.55 11.5019 148.302 12.4961 148.302 13.9146C148.302 15.3332 148.554 16.3395 149.06 16.9538C149.566 17.5681 150.438 17.8914 151.686 17.8914C152.934 17.8914 153.798 17.5115 154.28 16.7477C154.415 16.4928 154.614 16.2772 154.859 16.122C155.103 15.9668 155.384 15.8774 155.674 15.8626H157.505C157.606 15.8595 157.707 15.877 157.801 15.9138C157.895 15.9506 157.98 16.0061 158.052 16.0768C158.122 16.1459 158.177 16.2284 158.215 16.3195C158.252 16.4105 158.27 16.5081 158.268 16.6062C158.291 17.2495 158.133 17.8865 157.811 18.4456C157.489 19.0046 157.016 19.4635 156.445 19.7706C155.23 20.4712 153.478 20.8228 151.189 20.8255Z" fill="black"/>
    <path d="M57.297 16.4971V4.19098C57.297 4.19098 53.4842 5.46808 53.2518 5.56912C52.378 5.94741 51.6337 6.5687 51.109 7.35774C50.5842 8.14678 50.3016 9.0697 50.2954 10.0147V19.9647C50.3028 20.9089 50.5854 21.8308 51.1092 22.6195C51.633 23.4082 52.3756 24.0301 53.2477 24.4102C53.4802 24.5113 57.297 25.7883 57.297 25.7883V20.979H55.4457L57.297 16.4971Z" fill="#60AAFB"/>
    <path d="M65.7828 8.40616V0C65.7828 0 61.966 1.28112 61.7376 1.37811C60.8645 1.75725 60.1207 2.37877 59.5961 3.16762C59.0715 3.95648 58.7885 4.87893 58.7812 5.82368V16.5537L60.604 20.9993H58.7812C58.7812 26.7825 58.7812 32.0162 58.7812 32.0162C58.7812 32.0162 62.598 30.735 62.8305 30.634C63.7033 30.2544 64.4468 29.6328 64.9714 28.8441C65.4959 28.0553 65.7791 27.1331 65.7869 26.1884V12.9528H63.9233L65.7828 8.40616Z" fill="#355DFB"/>
    <path d="M74.2076 10.0187C74.2014 9.07368 73.9188 8.15078 73.3941 7.36174C72.8693 6.5727 72.125 5.95139 71.2512 5.57309C71.0188 5.47206 67.2061 4.19498 67.2061 4.19498V8.44252L69.0655 12.9568H67.2061V25.8004C67.2061 25.8004 71.0229 24.5233 71.2553 24.4223C72.1274 24.0422 72.87 23.4203 73.3938 22.6316C73.9176 21.8429 74.2002 20.9209 74.2076 19.9767V10.0187Z" fill="#0000DE"/>
    </g>
    <defs>
    <clipPath id="clip0_32_1093">
    <rect width="158.264" height="32" fill="white"/>
    </clipPath>
    </defs>
    </symbol>

    <symbol id="logo" viewBox="0 0 228 46" fill="none" xmlns="http://www.w3.org/2000/svg">
    <g clip-path="url(#clip0_16_178)">
    <path d="M-0.000231895 28.5192V11.503C-0.0046448 11.3591 0.0206567 11.2159 0.0740787 11.082C0.127501 10.9481 0.207935 10.8265 0.310463 10.7245C0.410676 10.6243 0.530428 10.5452 0.662445 10.4923C0.794463 10.4393 0.935982 10.4136 1.07836 10.4166H5.02924C5.17353 10.4124 5.31717 10.4375 5.45127 10.4904C5.58537 10.5434 5.70709 10.6231 5.80887 10.7245C5.90846 10.8281 5.98619 10.9502 6.03753 11.0839C6.08886 11.2176 6.11274 11.36 6.1078 11.503V17.7657H13.8337V11.503C13.8288 11.359 13.8538 11.2156 13.9072 11.0816C13.9605 10.9476 14.0411 10.8259 14.1439 10.724C14.2466 10.6221 14.3695 10.5423 14.5047 10.4894C14.6399 10.4365 14.7846 10.4118 14.9299 10.4166H18.8632C19.0067 10.4118 19.1496 10.4366 19.2828 10.4897C19.4161 10.5427 19.5367 10.6227 19.6369 10.7245C19.7373 10.8278 19.8159 10.9498 19.8683 11.0834C19.9206 11.2171 19.9456 11.3597 19.9418 11.503V28.5192C19.9476 28.6608 19.9236 28.8021 19.8714 28.9341C19.8192 29.0661 19.7399 29.1859 19.6384 29.2859C19.537 29.3859 19.4157 29.4639 19.2823 29.5149C19.1488 29.5659 19.0061 29.5889 18.8632 29.5823H14.9299C14.7851 29.5874 14.6408 29.5633 14.5058 29.5114C14.3707 29.4594 14.2478 29.3808 14.1444 29.2802C14.0432 29.1809 13.9635 29.0622 13.9101 28.9314C13.8567 28.8005 13.8307 28.6603 13.8337 28.5192V21.995H6.1078V28.5192C6.1127 28.6614 6.08763 28.803 6.03413 28.9351C5.98063 29.0671 5.89991 29.1867 5.79714 29.286C5.69555 29.3837 5.57528 29.4602 5.4434 29.5111C5.31152 29.562 5.1707 29.5862 5.02924 29.5823H1.07836C0.934948 29.5877 0.791907 29.5643 0.657902 29.5134C0.523896 29.4624 0.401703 29.3851 0.298728 29.286C0.198926 29.185 0.120936 29.065 0.0695349 28.9331C0.018134 28.8013 -0.00560393 28.6604 -0.000231895 28.5192Z" fill="black"/>
    <path d="M28.0371 31.4004L30.3467 31.7025C32.0075 31.7025 33.1662 30.4961 33.8227 28.0832C31.9838 28.1414 30.1923 27.4989 28.8167 26.288C27.4763 25.0913 26.3235 22.9611 25.3582 19.8975L22.7204 11.4679C22.6834 11.3634 22.6655 11.2532 22.6676 11.1425C22.6903 10.9749 22.7687 10.8195 22.8904 10.701C22.9724 10.6076 23.0745 10.5336 23.1891 10.4844C23.3037 10.4351 23.428 10.4119 23.5528 10.4163H27.2399C27.5951 10.4222 27.9387 10.5425 28.2188 10.7591C28.5038 10.9695 28.7101 11.2679 28.805 11.6073L31.1146 19.0203C31.4677 20.3751 32.0634 21.656 32.8731 22.8023C33.1219 23.1237 33.4411 23.3849 33.8067 23.566C34.1723 23.7472 34.5747 23.8436 34.9834 23.848L38.5005 11.6073C38.5922 11.2739 38.787 10.9773 39.0574 10.7591C39.3146 10.5385 39.6433 10.4168 39.9835 10.4163H43.7058C43.8296 10.4067 43.9538 10.4277 44.0673 10.4774C44.1809 10.5271 44.2802 10.6039 44.3565 10.701C44.4762 10.8272 44.5522 10.988 44.5734 11.16C44.5756 11.2637 44.5637 11.3672 44.5382 11.4679L39.9132 27.7985C39.0886 30.6916 38.0687 32.756 36.8533 33.9915C36.2434 34.605 35.5118 35.0864 34.7046 35.4054C33.8975 35.7244 33.0323 35.874 32.1638 35.8447C30.8063 35.8779 29.4483 35.808 28.1016 35.6356C27.5664 35.5954 27.0511 35.4171 26.6068 35.1185C26.5117 35.0262 26.4363 34.9159 26.385 34.7941C26.3336 34.6724 26.3074 34.5417 26.3079 34.4098V32.4868C26.3029 32.3439 26.3268 32.2014 26.3782 32.0677C26.4295 31.934 26.5072 31.8119 26.6068 31.7083C26.7084 31.6066 26.8301 31.5267 26.9642 31.4737C27.0984 31.4208 27.2421 31.3958 27.3865 31.4004H28.0371Z" fill="black"/>
    <path d="M47.1116 34.4217V11.503C47.1072 11.3591 47.1325 11.2159 47.186 11.082C47.2394 10.9482 47.3198 10.8265 47.4223 10.7246C47.5221 10.6237 47.6418 10.5443 47.7739 10.4913C47.906 10.4384 48.0478 10.4129 48.1902 10.4166H51.596C51.7395 10.4142 51.8821 10.4407 52.0149 10.4947C52.1477 10.5488 52.268 10.6291 52.3684 10.7308C52.4689 10.8325 52.5473 10.9535 52.5989 11.0862C52.6505 11.219 52.6743 11.3608 52.6687 11.503V12.0259C54.5563 10.7165 56.813 10.0313 59.1167 10.0681C60.2684 10.0417 61.4127 10.2579 62.4737 10.7026C63.5348 11.1473 64.4885 11.8102 65.2717 12.6475C66.9208 14.3671 67.7453 16.8265 67.7453 20.0256C67.7453 23.2247 66.8915 25.6764 65.1837 27.3805C63.476 29.0808 61.1762 29.9329 58.2843 29.9367C56.5488 29.893 54.8297 29.5914 53.1845 29.042V34.4217C53.1897 34.5652 53.1654 34.7082 53.1129 34.842C53.0605 34.9759 52.9812 35.0977 52.8797 35.2002C52.7795 35.3005 52.6597 35.3795 52.5277 35.4324C52.3957 35.4853 52.2542 35.5111 52.1118 35.5081H48.1609C48.0185 35.5118 47.8767 35.4863 47.7446 35.4334C47.6125 35.3804 47.4928 35.301 47.393 35.2002C47.2958 35.0958 47.2207 34.9731 47.1724 34.8393C47.124 34.7056 47.1034 34.5635 47.1116 34.4217ZM53.2021 25.0044C54.437 25.4303 55.7291 25.6711 57.0357 25.719C58.6497 25.719 59.7928 25.2639 60.4649 24.3537C61.1371 23.4436 61.4751 21.9931 61.479 20.0024C61.479 18.0097 61.1625 16.5573 60.5177 15.6569C60.1937 15.2072 59.7594 14.8469 59.2558 14.61C58.7521 14.3732 58.1958 14.2676 57.6395 14.3032C56.3675 14.3032 54.8845 14.8261 53.2021 15.8776V25.0044Z" fill="black"/>
    <path d="M111.428 28.5192V11.503C111.423 11.3595 111.447 11.2165 111.499 11.0827C111.552 10.9488 111.631 10.827 111.733 10.7245C111.833 10.6243 111.953 10.5452 112.085 10.4923C112.217 10.4393 112.358 10.4136 112.501 10.4166H116.188C116.333 10.4118 116.478 10.4365 116.613 10.4894C116.748 10.5423 116.871 10.6221 116.974 10.724C117.076 10.8259 117.157 10.9476 117.21 11.0816C117.264 11.2156 117.289 11.359 117.284 11.503V22.9943L123.492 11.6773C123.694 11.3055 123.994 10.9945 124.359 10.7768C124.694 10.5533 125.087 10.4284 125.49 10.4166H130.426C130.571 10.4118 130.716 10.4365 130.851 10.4894C130.986 10.5423 131.109 10.6221 131.212 10.724C131.315 10.8259 131.395 10.9476 131.449 11.0816C131.502 11.2156 131.527 11.359 131.522 11.503V28.5192C131.527 28.6614 131.502 28.803 131.449 28.9351C131.395 29.0671 131.314 29.1867 131.212 29.286C131.107 29.3853 130.984 29.4627 130.849 29.5136C130.714 29.5645 130.57 29.5879 130.426 29.5823H126.739C126.596 29.5879 126.453 29.564 126.32 29.512C126.187 29.4599 126.066 29.381 125.965 29.2802C125.867 29.1796 125.79 29.0603 125.738 28.9296C125.687 28.7989 125.662 28.6594 125.666 28.5192V17.0453L119.441 28.3275C119.232 28.6879 118.936 28.9913 118.579 29.2105C118.247 29.4405 117.853 29.5697 117.448 29.5823H112.489C112.346 29.5889 112.204 29.566 112.071 29.5149C111.937 29.4638 111.816 29.3857 111.715 29.2857C111.615 29.1856 111.536 29.0657 111.484 28.9337C111.433 28.8017 111.409 28.6606 111.416 28.5192H111.428Z" fill="black"/>
    <path d="M135.854 28.5193V11.5031C135.849 11.3592 135.875 11.216 135.928 11.0821C135.982 10.9482 136.062 10.8266 136.165 10.7246C136.265 10.6244 136.385 10.5453 136.517 10.4924C136.649 10.4395 136.79 10.4137 136.932 10.4167H140.883C141.028 10.4114 141.172 10.436 141.306 10.4891C141.44 10.5421 141.562 10.6223 141.663 10.7246C141.763 10.8282 141.84 10.9503 141.892 11.084C141.943 11.2177 141.967 11.3602 141.962 11.5031V17.7658H149.688V11.5031C149.683 11.3591 149.708 11.2157 149.761 11.0817C149.815 10.9477 149.895 10.826 149.998 10.7241C150.101 10.6223 150.224 10.5424 150.359 10.4895C150.494 10.4366 150.639 10.4119 150.784 10.4167H154.717C154.862 10.4125 155.005 10.4376 155.139 10.4906C155.273 10.5435 155.395 10.6232 155.497 10.7246C155.596 10.8282 155.674 10.9503 155.726 11.084C155.777 11.2177 155.801 11.3602 155.796 11.5031V28.5193C155.801 28.6605 155.777 28.8014 155.726 28.9332C155.675 29.0651 155.597 29.1851 155.497 29.2861C155.394 29.3847 155.271 29.4617 155.137 29.5126C155.003 29.5635 154.861 29.5872 154.717 29.5824H150.784C150.639 29.5875 150.495 29.5634 150.36 29.5115C150.225 29.4596 150.102 29.3809 149.998 29.2803C149.897 29.181 149.818 29.0623 149.764 28.9315C149.711 28.8006 149.685 28.6604 149.688 28.5193V21.9951H141.95V28.5193C141.955 28.6615 141.93 28.8031 141.876 28.9352C141.823 29.0672 141.742 29.1868 141.639 29.2861C141.538 29.3843 141.418 29.4612 141.286 29.5121C141.154 29.5631 141.013 29.5869 140.872 29.5824H136.921C136.778 29.5877 136.636 29.5642 136.503 29.5133C136.37 29.4623 136.249 29.385 136.147 29.2861C136.047 29.1853 135.97 29.0651 135.919 28.9331C135.869 28.8011 135.847 28.6602 135.854 28.5193Z" fill="black"/>
    <path d="M161.365 28.3273C160.614 27.8311 160.004 27.1523 159.594 26.3559C159.183 25.5595 158.986 24.6721 159.02 23.7784C158.983 22.8892 159.18 22.0058 159.591 21.2146C160.002 20.4233 160.613 19.7513 161.365 19.2644C163.168 18.1523 165.269 17.6056 167.391 17.6958H173.253C173.253 16.3286 172.963 15.3778 172.385 14.8433C171.799 14.3088 170.802 14.0358 169.36 14.0358C167.918 14.0358 166.91 14.3902 166.324 15.0989C166.074 15.4277 165.751 15.6944 165.38 15.8779C165.009 16.0614 164.599 16.1567 164.184 16.1563H161.552C161.407 16.1606 161.263 16.1356 161.128 16.0827C160.992 16.0297 160.87 15.95 160.767 15.8484C160.666 15.7491 160.586 15.6303 160.532 15.4995C160.479 15.3687 160.453 15.2284 160.456 15.0873C160.456 11.741 163.663 10.0679 170.075 10.0679C172.877 10.0679 175.124 10.6895 176.817 11.9327C178.509 13.176 179.355 15.097 179.355 17.6958V28.519C179.361 28.6604 179.338 28.8016 179.287 28.9336C179.235 29.0655 179.156 29.1854 179.055 29.2855C178.954 29.3856 178.833 29.4636 178.7 29.5147C178.567 29.5658 178.425 29.5888 178.282 29.5821H174.876C174.732 29.5886 174.588 29.565 174.454 29.513C174.32 29.4609 174.198 29.3816 174.097 29.2801C173.998 29.1794 173.921 29.0601 173.87 28.9294C173.818 28.7987 173.794 28.6592 173.798 28.519V27.9729C171.918 29.3 169.657 29.9907 167.35 29.9423C165.235 30.0233 163.146 29.4596 161.365 28.3273ZM165.867 22.2563C165.639 22.4461 165.455 22.683 165.329 22.9505C165.204 23.2179 165.138 23.5094 165.138 23.8045C165.138 24.0996 165.204 24.3912 165.329 24.6586C165.455 24.9261 165.639 25.163 165.867 25.3528C166.472 25.7949 167.215 26.011 167.965 25.9628C169.828 25.9486 171.648 25.4019 173.206 24.3884V21.6405H167.789C167.095 21.6134 166.414 21.8316 165.867 22.2563Z" fill="black"/>
    <path d="M183.681 28.5193V11.5031C183.676 11.3596 183.7 11.2166 183.752 11.0828C183.805 10.9489 183.884 10.8271 183.986 10.7246C184.086 10.6244 184.206 10.5453 184.338 10.4924C184.47 10.4395 184.611 10.4137 184.754 10.4167H188.71C188.854 10.4119 188.997 10.4368 189.13 10.4898C189.263 10.5428 189.384 10.6228 189.484 10.7246C189.584 10.8282 189.661 10.9503 189.713 11.084C189.764 11.2177 189.788 11.3602 189.783 11.5031V17.7658H197.515V11.5031C197.509 11.3594 197.533 11.2161 197.586 11.0821C197.639 10.9481 197.719 10.8264 197.821 10.7244C197.923 10.6224 198.046 10.5425 198.181 10.4896C198.316 10.4366 198.46 10.4118 198.605 10.4167H202.538C202.683 10.4114 202.827 10.436 202.961 10.4891C203.095 10.5421 203.217 10.6223 203.318 10.7246C203.418 10.8282 203.495 10.9503 203.547 11.084C203.598 11.2177 203.622 11.3602 203.617 11.5031V28.5193C203.624 28.6612 203.6 28.8029 203.549 28.9353C203.497 29.0677 203.417 29.1878 203.316 29.288C203.214 29.3882 203.092 29.4661 202.959 29.5169C202.825 29.5676 202.682 29.5899 202.538 29.5824H198.605C198.46 29.5875 198.316 29.5634 198.181 29.5115C198.046 29.4596 197.923 29.3809 197.82 29.2803C197.719 29.1807 197.64 29.0618 197.588 28.931C197.536 28.8001 197.511 28.66 197.515 28.5193V21.9951H189.783V28.5193C189.789 28.6616 189.764 28.8036 189.711 28.9358C189.657 29.068 189.576 29.1874 189.472 29.2861C189.372 29.3836 189.253 29.4601 189.122 29.511C188.991 29.5619 188.851 29.5862 188.71 29.5824H184.754C184.611 29.589 184.468 29.5661 184.335 29.515C184.202 29.4639 184.081 29.3858 183.98 29.2858C183.879 29.1857 183.8 29.0658 183.749 28.9338C183.697 28.8019 183.674 28.6607 183.681 28.5193Z" fill="black"/>
    <path d="M217.333 29.9365C214.031 29.9365 211.464 29.0961 209.631 27.4152C207.798 25.7343 206.882 23.2652 206.882 20.008C206.882 16.7508 207.792 14.2798 209.613 12.595C211.434 10.9102 213.975 10.0679 217.234 10.0679C220.485 10.0679 222.986 10.581 224.737 11.6074C225.556 12.0502 226.234 12.7103 226.696 13.5138C227.158 14.3172 227.385 15.2322 227.351 16.1563C227.357 16.2981 227.333 16.4395 227.28 16.5715C227.228 16.7035 227.148 16.8233 227.047 16.9231C226.942 17.0218 226.819 17.0989 226.684 17.1497C226.549 17.2006 226.405 17.2243 226.261 17.2194H223.629C223.208 17.2021 222.799 17.0755 222.443 16.8522C222.087 16.6289 221.797 16.3168 221.601 15.9471C220.909 14.8472 219.684 14.2991 217.926 14.303C216.167 14.303 214.936 14.7445 214.238 15.6392C213.541 16.5339 213.183 17.963 213.183 20.0022C213.183 22.0413 213.547 23.4879 214.274 24.371C215 25.254 216.255 25.7188 218.049 25.7188C219.842 25.7188 221.085 25.1727 221.777 24.0747C221.971 23.7083 222.257 23.3984 222.609 23.1753C222.961 22.9522 223.365 22.8237 223.782 22.8024H226.413C226.559 22.798 226.703 22.8231 226.838 22.876C226.973 22.9289 227.096 23.0087 227.199 23.1103C227.3 23.2096 227.38 23.3283 227.433 23.4592C227.487 23.59 227.513 23.7303 227.51 23.8714C227.543 24.7961 227.316 25.7118 226.853 26.5154C226.39 27.319 225.71 27.9787 224.889 28.4202C223.143 29.4272 220.624 29.9327 217.333 29.9365Z" fill="black"/>
    <path d="M82.3646 23.7145V6.02441C82.3646 6.02441 76.8838 7.86025 76.5496 8.00549C75.2936 8.54929 74.2236 9.44239 73.4693 10.5766C72.715 11.7109 72.3088 13.0376 72.2998 14.396V28.6991C72.3105 30.0564 72.7167 31.3816 73.4696 32.5154C74.2226 33.6492 75.2901 34.5431 76.5438 35.0896C76.8779 35.2348 82.3646 37.0706 82.3646 37.0706V30.1573H79.7033L82.3646 23.7145Z" fill="#60AAFB"/>
    <path d="M94.5633 12.0839V0C94.5633 0 89.0766 1.84161 88.7484 1.98104C87.4932 2.52604 86.424 3.41949 85.6699 4.55346C84.9158 5.68743 84.509 7.01346 84.4985 8.37154V23.7959L87.1188 30.1864H84.4985C84.4985 38.4999 84.4985 46.0232 84.4985 46.0232C84.4985 46.0232 89.9852 44.1816 90.3193 44.0364C91.574 43.4908 92.6428 42.5972 93.3968 41.4634C94.1509 40.3295 94.558 39.0038 94.5691 37.6459V18.6196H91.8903L94.5633 12.0839Z" fill="#355DFB"/>
    <path d="M106.674 14.4018C106.665 13.0434 106.258 11.7167 105.504 10.5825C104.75 9.44825 103.68 8.55511 102.424 8.01131C102.09 7.86608 96.6089 6.03027 96.6089 6.03027V12.1361L99.2819 18.6254H96.6089V37.0881C96.6089 37.0881 102.096 35.2523 102.43 35.1071C103.683 34.5606 104.751 33.6667 105.504 32.5329C106.257 31.3991 106.663 30.0738 106.674 28.7166V14.4018Z" fill="#0000DE"/>
    </g>
    <defs>
    <clipPath id="clip0_16_178">
    <rect width="227.504" height="46" fill="white"/>
    </clipPath>
    </defs>
    </symbol>

    <symbol id="glass" viewBox="0 0 24 24" fill="none" xmlns="http://www.w3.org/2000/svg">
    <path d="M10.875 18.75C15.2242 18.75 18.75 15.2242 18.75 10.875C18.75 6.52576 15.2242 3 10.875 3C6.52576 3 3 6.52576 3 10.875C3 15.2242 6.52576 18.75 10.875 18.75Z" stroke="#6E9BB8" stroke-linecap="round" stroke-linejoin="round"/>
    <path d="M16.4429 16.4438L20.9992 21.0002" stroke="#6E9BB8" stroke-linecap="round" stroke-linejoin="round"/>
    </symbol>

    <symbol id="imgblue"  viewBox="0 0 90 90" fill="none" xmlns="http://www.w3.org/2000/svg">
    <path opacity="0.2" d="M19.6875 16.875L47.8125 45L19.6875 73.125V16.875Z" fill="white"/>
    <path d="M19.6875 16.875L47.8125 45L19.6875 73.125V16.875Z" stroke="white" stroke-linecap="round" stroke-linejoin="round"/>
    <path d="M47.8125 16.875L75.9375 45L47.8125 73.125" stroke="white" stroke-linecap="round" stroke-linejoin="round"/>
    </symbol>

    <symbol id="imgblue2"  viewBox="0 0 90 90" fill="none" xmlns="http://www.w3.org/2000/svg">
    <path opacity="0.2" d="M14.8662 25.3125H77.9466L68.6658 57.7953C68.3299 58.9706 67.6204 60.0046 66.6445 60.7407C65.6687 61.4768 64.4796 61.875 63.2572 61.875H29.5556C28.3332 61.875 27.1441 61.4768 26.1682 60.7407C25.1923 60.0046 24.4828 58.9706 24.147 57.7953L14.8662 25.3125Z" fill="white"/>
    <path d="M28.125 81.5625C31.2316 81.5625 33.75 79.0441 33.75 75.9375C33.75 72.8309 31.2316 70.3125 28.125 70.3125C25.0184 70.3125 22.5 72.8309 22.5 75.9375C22.5 79.0441 25.0184 81.5625 28.125 81.5625Z" stroke="white" stroke-linecap="round" stroke-linejoin="round"/>
    <path d="M64.6875 81.5625C67.7941 81.5625 70.3125 79.0441 70.3125 75.9375C70.3125 72.8309 67.7941 70.3125 64.6875 70.3125C61.5809 70.3125 59.0625 72.8309 59.0625 75.9375C59.0625 79.0441 61.5809 81.5625 64.6875 81.5625Z" stroke="white" stroke-linecap="round" stroke-linejoin="round"/>
    <path d="M14.8661 25.3125H77.9464L68.6656 57.7953C68.3298 58.9706 67.6203 60.0046 66.6444 60.7407C65.6685 61.4768 64.4794 61.875 63.2571 61.875H29.5554C28.3331 61.875 27.144 61.4768 26.1681 60.7407C25.1922 60.0046 24.4827 58.9706 24.1469 57.7953L11.431 13.2898C11.2631 12.7022 10.9084 12.1852 10.4204 11.8171C9.93248 11.4491 9.33793 11.25 8.72674 11.25H2.8125" stroke="white" stroke-linecap="round" stroke-linejoin="round"/>
    </symbol>

    <symbol id="graph" viewBox="0 0 391 374" fill="none" xmlns="http://www.w3.org/2000/svg">
    <g clip-path="url(#clip0_16_371)">
    <path opacity="0.1" d="M315.25 306.86C282 326.36 242 341.9 196.48 353C151.86 363.92 101.74 370.59 47.0498 373H369.05C374.399 373 379.53 370.875 383.312 367.092C387.095 363.31 389.22 358.179 389.22 352.83V241C385 248 365.13 277.64 315.25 306.86Z" fill="#355DFB"/>
    <path opacity="0.1" d="M219.6 288.27C162.52 328.44 92.8399 356.56 12.3599 371.93C80.4599 371.23 142.14 364.25 195.84 351.13C241.16 340.06 280.94 324.62 314.06 305.24C370.42 272.24 388.17 238.87 388.34 238.54C388.426 238.379 388.554 238.244 388.711 238.151C388.868 238.057 389.047 238.009 389.23 238.01V11.1599C386.3 34.8199 375.23 96.8199 335.85 163.16C306.415 212.638 266.787 255.286 219.6 288.27Z" fill="#0000DE"/>
    <path d="M1 373C320 373 389.23 239 389.23 239" stroke="#355DFB" stroke-width="2" stroke-miterlimit="10" stroke-linecap="round"/>
    <path d="M1 373C374 308 389.23 1 389.23 1" stroke="#0000DE" stroke-width="2" stroke-miterlimit="10" stroke-linecap="round"/>
    </g>
    <defs>
    <clipPath id="clip0_16_371">
    <rect width="390.23" height="374" fill="white"/>
    </clipPath>
    </defs>
    </symbol>

    <symbol id="lefticon" viewBox="0 0 64 64" fill="none" xmlns="http://www.w3.org/2000/svg">
    <path opacity="0.2" d="M32 38C46.3594 38 58 32.6274 58 26C58 19.3726 46.3594 14 32 14C17.6406 14 6 19.3726 6 26C6 32.6274 17.6406 38 32 38Z" fill="#355DFB"/>
    <path d="M32 38C46.3594 38 58 32.6274 58 26C58 19.3726 46.3594 14 32 14C17.6406 14 6 19.3726 6 26C6 32.6274 17.6406 38 32 38Z" stroke="#355DFB" stroke-linecap="round" stroke-linejoin="round"/>
    <path d="M32 38V50" stroke="#355DFB" stroke-linecap="round" stroke-linejoin="round"/>
    <path d="M6 26V38C6 44 16 50 32 50C48 50 58 44 58 38V26" stroke="#355DFB" stroke-linecap="round" stroke-linejoin="round"/>
    <path d="M48 35.5269V47.527" stroke="#355DFB" stroke-linecap="round" stroke-linejoin="round"/>
    <path d="M16 35.5269V47.527" stroke="#355DFB" stroke-linecap="round" stroke-linejoin="round"/>
    </symbol>

    <symbol id="lefticon2" viewBox="0 0 64 64" fill="none" xmlns="http://www.w3.org/2000/svg">
    <path opacity="0.2" d="M10 48C10 49.0609 10.4214 50.0783 11.1716 50.8284C11.9217 51.5786 12.9391 52 14 52H54C54.5304 52 55.0391 51.7893 55.4142 51.4142C55.7893 51.0391 56 50.5304 56 50V22C56 21.4696 55.7893 20.9609 55.4142 20.5858C55.0391 20.2107 54.5304 20 54 20H14C12.9391 20 11.9217 19.5786 11.1716 18.8284C10.4214 18.0783 10 17.0609 10 16V48Z" fill="#355DFB"/>
    <path d="M10 16V48C10 49.0609 10.4214 50.0783 11.1716 50.8284C11.9217 51.5786 12.9391 52 14 52H54C54.5304 52 55.0391 51.7893 55.4142 51.4142C55.7893 51.0391 56 50.5304 56 50V22C56 21.4696 55.7893 20.9609 55.4142 20.5858C55.0391 20.2107 54.5304 20 54 20H14C12.9391 20 11.9217 19.5786 11.1716 18.8284C10.4214 18.0783 10 17.0609 10 16ZM10 16C10 14.9391 10.4214 13.9217 11.1716 13.1716C11.9217 12.4214 12.9391 12 14 12H48" stroke="#355DFB" stroke-linecap="round" stroke-linejoin="round"/>
    <path d="M45 39C46.6569 39 48 37.6569 48 36C48 34.3431 46.6569 33 45 33C43.3431 33 42 34.3431 42 36C42 37.6569 43.3431 39 45 39Z" stroke="#355DFB" stroke-linecap="round" stroke-linejoin="round"/>
    </symbol>

    <symbol id="lefticon3" viewBox="0 0 64 64" fill="none" xmlns="http://www.w3.org/2000/svg">
    <path opacity="0.2" d="M53 10H39V52H53V10Z" fill="#355DFB"/>
    <path d="M57 52H7" stroke="#355DFB" stroke-linecap="round" stroke-linejoin="round"/>
    <path d="M25 52V22H39" stroke="#355DFB" stroke-linecap="round" stroke-linejoin="round"/>
    <path d="M53 10H39V52H53V10Z" stroke="#355DFB" stroke-linecap="round" stroke-linejoin="round"/>
    <path d="M11 52V34H25" stroke="#355DFB" stroke-linecap="round" stroke-linejoin="round"/>
    </symbol>

    <symbol  id="lefticon4" viewBox="0 0 64 64" fill="none" xmlns="http://www.w3.org/2000/svg">
    <path opacity="0.2" d="M50.6014 41.0209C45.2472 51.0712 35.1912 54.9549 32.614 55.8093C32.2161 55.9463 31.7838 55.9463 31.3859 55.8093C28.8088 54.9549 18.7526 51.0712 13.3984 41.0207L13.3992 41.0205L32 28L50.6005 41.0204L50.6014 41.0209Z" fill="#355DFB"/>
    <path d="M10 26.6667V12C10 11.4696 10.2107 10.9609 10.5858 10.5858C10.9609 10.2107 11.4696 10 12 10H52C52.5304 10 53.0391 10.2107 53.4142 10.5858C53.7893 10.9609 54 11.4696 54 12V26.6667C54 47.6705 36.1735 54.6292 32.6141 55.8093C32.2161 55.9463 31.7839 55.9463 31.386 55.8093C27.8265 54.6292 10 47.6705 10 26.6667Z" stroke="#355DFB" stroke-linecap="round" stroke-linejoin="round"/>
    <path d="M50.6007 41.0205L32.0002 28L13.3994 41.0205" stroke="#355DFB" stroke-linecap="round" stroke-linejoin="round"/>
    </symbol>

    <symbol id="linear" viewBox="0 0 390 98" fill="none" xmlns="http://www.w3.org/2000/svg">
    <path d="M26.9997 93.9999L53 16.0004" stroke="#7C83A1" stroke-width="2" stroke-linecap="round"/>
    <path d="M53 16L79 53" stroke="#7C83A1" stroke-width="2" stroke-linecap="round"/>
    <path d="M79 53L105 39.9998" stroke="#7C83A1" stroke-width="2" stroke-linecap="round"/>
    <path d="M105 40L131 73" stroke="#7C83A1" stroke-width="2" stroke-linecap="round"/>
    <path d="M131 72.9999L157.001 50.9995" stroke="#7C83A1" stroke-width="2" stroke-linecap="round"/>
    <path d="M157 51L183 88" stroke="#7C83A1" stroke-width="2" stroke-linecap="round"/>
    <path d="M183 87.9999L209.001 4.99997" stroke="#7C83A1" stroke-width="2" stroke-linecap="round"/>
    <path d="M209 5L235 34" stroke="#7C83A1" stroke-width="2" stroke-linecap="round"/>
    <path d="M235 34L261 59" stroke="#7C83A1" stroke-width="2" stroke-linecap="round"/>
    <path d="M261 58.9999L287 20.9993" stroke="#7C83A1" stroke-width="2" stroke-linecap="round"/>
    <path d="M287 20.9999L312.999 95.9999" stroke="#7C83A1" stroke-width="2" stroke-linecap="round"/>
    <path d="M313 96.0001L339 41.0001" stroke="#7C83A1" stroke-width="2" stroke-linecap="round"/>
    <path d="M339 41L365 61.0002" stroke="#7C83A1" stroke-width="2" stroke-linecap="round"/>
    <path d="M365 61.0001L387.999 45.9993" stroke="#7C83A1" stroke-width="2" stroke-linecap="round"/>
    <circle cx="26.8682" cy="94" r="1" fill="white" stroke="#7C83A1" stroke-width="2"/>
    <circle cx="53" cy="16" r="1" fill="white" stroke="#7C83A1" stroke-width="2"/>
    <circle cx="79" cy="53" r="1" fill="white" stroke="#7C83A1" stroke-width="2"/>
    <circle cx="105" cy="40" r="1" fill="white" stroke="#7C83A1" stroke-width="2"/>
    <circle cx="131" cy="73" r="1" fill="white" stroke="#7C83A1" stroke-width="2"/>
    <circle cx="157" cy="51" r="1" fill="white" stroke="#7C83A1" stroke-width="2"/>
    <circle cx="183" cy="88" r="1" fill="white" stroke="#7C83A1" stroke-width="2"/>
    <circle cx="209" cy="5" r="1" fill="white" stroke="#7C83A1" stroke-width="2"/>
    <circle cx="235" cy="34" r="1" fill="white" stroke="#7C83A1" stroke-width="2"/>
    <circle cx="261" cy="59" r="1" fill="white" stroke="#7C83A1" stroke-width="2"/>
    <circle cx="287" cy="21" r="1" fill="white" stroke="#7C83A1" stroke-width="2"/>
    <circle cx="313" cy="96" r="1" fill="white" stroke="#7C83A1" stroke-width="2"/>
    <circle cx="339" cy="41" r="1" fill="white" stroke="#7C83A1" stroke-width="2"/>
    <circle cx="365" cy="61" r="1" fill="white" stroke="#7C83A1" stroke-width="2"/>
    <circle cx="388" cy="46" r="1" fill="white" stroke="#7C83A1" stroke-width="2"/>
    </symbol>

    <symbol id="circles" viewBox="0 0 366 76" fill="none" xmlns="http://www.w3.org/2000/svg">
    <path d="M5 64L56 51" stroke="#0000DE" stroke-width="2" stroke-linecap="round"/>
    <path d="M56 51L107 46" stroke="#0000DE" stroke-width="2" stroke-linecap="round"/>
    <path d="M107 46L158 40" stroke="#0000DE" stroke-width="2" stroke-linecap="round"/>
    <path d="M158 40L208.868 36" stroke="#0000DE" stroke-width="2" stroke-linecap="round"/>
    <path d="M208.868 36L260 30" stroke="#0000DE" stroke-width="2" stroke-linecap="round"/>
    <path d="M259.5 30L311 24" stroke="#0000DE" stroke-width="2" stroke-linecap="round"/>
    <path d="M311 24L362 14.989" stroke="#0000DE" stroke-width="2" stroke-linecap="round"/>
    <circle cx="4.86816" cy="64" r="3" fill="white" stroke="#0000DE" stroke-width="2"/>
    <circle cx="55.8682" cy="51" r="3" fill="white" stroke="#0000DE" stroke-width="2"/>
    <circle cx="106.868" cy="46" r="3" fill="white" stroke="#0000DE" stroke-width="2"/>
    <circle cx="158" cy="40" r="3" fill="white" stroke="#0000DE" stroke-width="2"/>
    <circle cx="208.868" cy="36" r="3" fill="white" stroke="#0000DE" stroke-width="2"/>
    <circle cx="259.868" cy="30" r="3" fill="white" stroke="#0000DE" stroke-width="2"/>
    <circle cx="310.868" cy="24" r="3" fill="white" stroke="#0000DE" stroke-width="2"/>
    <circle cx="362" cy="15" r="3" fill="white" stroke="#0000DE" stroke-width="2"/>
    </symbol>

    <symbol id="check" viewBox="0 0 20 20" fill="none" xmlns="http://www.w3.org/2000/svg">
    <path d="M13.4375 8.125L8.85414 12.5L6.5625 10.3125" stroke="#7C83A1" stroke-linecap="round" stroke-linejoin="round"/>
    <path d="M10 17.5C14.1421 17.5 17.5 14.1421 17.5 10C17.5 5.85786 14.1421 2.5 10 2.5C5.85786 2.5 2.5 5.85786 2.5 10C2.5 14.1421 5.85786 17.5 10 17.5Z" stroke="#7C83A1" stroke-linecap="round" stroke-linejoin="round"/>
    </symbol>

    <symbol id="checkblue" viewBox="0 0 20 20" fill="none" xmlns="http://www.w3.org/2000/svg">
    <path d="M13.4375 8.125L8.85414 12.5L6.5625 10.3125" stroke="#355DFB" stroke-linecap="round" stroke-linejoin="round"/>
    <path d="M10 17.5C14.1421 17.5 17.5 14.1421 17.5 10C17.5 5.85786 14.1421 2.5 10 2.5C5.85786 2.5 2.5 5.85786 2.5 10C2.5 14.1421 5.85786 17.5 10 17.5Z" stroke="#355DFB" stroke-linecap="round" stroke-linejoin="round"/>
    </symbol>

    <symbol id="arrowleft" viewBox="0 0 17 32" fill="none" xmlns="http://www.w3.org/2000/svg">
    <path d="M16 1L1 16L16 31" stroke="#0000DE" stroke-linecap="round" stroke-linejoin="round"/>
    </symbol>

    <symbol id="arrowright" width="17" height="32" viewBox="0 0 17 32" fill="none" xmlns="http://www.w3.org/2000/svg">
    <path d="M1 1L16 16L1 31" stroke="#0000DE" stroke-linecap="round" stroke-linejoin="round"/>
    </symbol>

    <symbol id="info" viewBox="0 0 44 44" fill="none" xmlns="http://www.w3.org/2000/svg">
    <path d="M22 38.5C31.1127 38.5 38.5 31.1127 38.5 22C38.5 12.8873 31.1127 5.5 22 5.5C12.8873 5.5 5.5 12.8873 5.5 22C5.5 31.1127 12.8873 38.5 22 38.5Z" stroke="#0000DE" stroke-linecap="round" stroke-linejoin="round"/>
    <path d="M22 32.3125C22.7594 32.3125 23.375 31.6969 23.375 30.9375C23.375 30.1781 22.7594 29.5625 22 29.5625C21.2406 29.5625 20.625 30.1781 20.625 30.9375C20.625 31.6969 21.2406 32.3125 22 32.3125Z" fill="#0000DE"/>
    <path d="M22 24.7507V23.3757C22.9518 23.3757 23.8823 23.0935 24.6737 22.5647C25.4651 22.0359 26.0819 21.2843 26.4462 20.4049C26.8104 19.5255 26.9057 18.5579 26.72 17.6244C26.5343 16.6908 26.076 15.8333 25.403 15.1603C24.7299 14.4872 23.8724 14.0289 22.9389 13.8432C22.0053 13.6575 21.0377 13.7528 20.1583 14.1171C19.279 14.4813 18.5274 15.0981 17.9986 15.8896C17.4697 16.681 17.1875 17.6114 17.1875 18.5632" stroke="#0000DE" stroke-linecap="round" stroke-linejoin="round"/>
    </symbol>

    <symbol id="info2"  viewBox="0 0 44 44" fill="none" xmlns="http://www.w3.org/2000/svg">
    <path d="M22 38.5C31.1127 38.5 38.5 31.1127 38.5 22C38.5 12.8873 31.1127 5.5 22 5.5C12.8873 5.5 5.5 12.8873 5.5 22C5.5 31.1127 12.8873 38.5 22 38.5Z" stroke="#0000DE" stroke-linecap="round" stroke-linejoin="round"/>
    <path d="M22 5.5V38.5" stroke="#0000DE" stroke-linecap="round" stroke-linejoin="round"/>
    <path d="M22 8.25098L38.3033 24.5543" stroke="#0000DE" stroke-linecap="round" stroke-linejoin="round"/>
    <path d="M22 17.876L35.5461 31.4221" stroke="#0000DE" stroke-linecap="round" stroke-linejoin="round"/>
    <path d="M22 27.501L30.5895 36.0905" stroke="#0000DE" stroke-linecap="round" stroke-linejoin="round"/>
    </symbol>

    <symbol id="info3" viewBox="0 0 44 44" fill="none" xmlns="http://www.w3.org/2000/svg">
    <path d="M1.375 16.5L22 5.5L42.625 16.5L22 27.5L1.375 16.5Z" stroke="#0000DE" stroke-linecap="round" stroke-linejoin="round"/>
    <path d="M32.3125 41.25V22L22 16.5" stroke="#0000DE" stroke-linecap="round" stroke-linejoin="round"/>
    <path d="M37.8125 19.0667V28.4374C37.8131 28.734 37.7172 29.0228 37.5393 29.2602C36.3814 30.8009 31.4966 36.4375 22 36.4375C12.5034 36.4375 7.61856 30.8009 6.4607 29.2602C6.28282 29.0228 6.18693 28.734 6.1875 28.4374V19.0667" stroke="#0000DE" stroke-linecap="round" stroke-linejoin="round"/>
    </symbol>

    <symbol id="line" viewBox="0 0 19 10" fill="none" xmlns="http://www.w3.org/2000/svg">
    <path d="M17.7627 1.04443L9.39233 9.4148L1.02196 1.04443" stroke="#0000DE" stroke-linecap="round" stroke-linejoin="round"/>
    </symbol>

    <symbol id="social" viewBox="0 0 23 23" fill="none" xmlns="http://www.w3.org/2000/svg">
    <path d="M11.5 20.125C16.2635 20.125 20.125 16.2635 20.125 11.5C20.125 6.73654 16.2635 2.875 11.5 2.875C6.73654 2.875 2.875 6.73654 2.875 11.5C2.875 16.2635 6.73654 20.125 11.5 20.125Z" stroke="black" stroke-linecap="round" stroke-linejoin="round"/>
    <path d="M15.0938 7.90634H13.6562C13.0844 7.90634 12.5359 8.13352 12.1316 8.53789C11.7272 8.94227 11.5 9.49072 11.5 10.0626V20.1251" stroke="black" stroke-linecap="round" stroke-linejoin="round"/>
    <path d="M8.625 12.9376H14.375" stroke="black" stroke-linecap="round" stroke-linejoin="round"/>
    </symbol>

    <symbol id="social2" viewBox="0 0 23 23" fill="none" xmlns="http://www.w3.org/2000/svg">
    <path d="M4.08149 15.9022C3.00989 14.0957 2.63461 11.9602 3.02611 9.89663C3.41761 7.83305 4.54897 5.98338 6.20774 4.69492C7.8665 3.40647 9.93857 2.76788 12.0349 2.89906C14.1311 3.03024 16.1074 3.92217 17.5926 5.40736C19.0778 6.89255 19.9698 8.86884 20.101 10.9651C20.2321 13.0614 19.5936 15.1335 18.3051 16.7922C17.0167 18.451 15.167 19.5824 13.1034 19.9739C11.0399 20.3654 8.90435 19.9901 7.09789 18.9186L7.09791 18.9185L4.119 19.7696C3.99575 19.8048 3.86533 19.8064 3.74125 19.7743C3.61716 19.7421 3.50394 19.6774 3.4133 19.5867C3.32267 19.4961 3.25792 19.3829 3.22576 19.2588C3.19361 19.1347 3.19523 19.0043 3.23044 18.881L4.08156 15.9021L4.08149 15.9022Z" stroke="black" stroke-linecap="round" stroke-linejoin="round"/>
    <path d="M13.6665 16.5312C12.7209 16.5326 11.7843 16.3473 10.9104 15.9861C10.0366 15.6248 9.24256 15.0947 8.57392 14.4261C7.90528 13.7574 7.37516 12.9634 7.01391 12.0896C6.65267 11.2157 6.46741 10.2791 6.46876 9.33354C6.4709 8.66795 6.73695 8.03039 7.20855 7.5607C7.68014 7.09101 8.31879 6.82756 8.98438 6.82813V6.82813C9.09355 6.82813 9.20078 6.85699 9.2952 6.91178C9.38962 6.96658 9.46788 7.04536 9.52205 7.14015L10.5724 8.97829C10.6358 9.08914 10.6684 9.21487 10.6671 9.34253C10.6657 9.4702 10.6304 9.5952 10.5647 9.70468L9.72114 11.1106C10.1551 12.0737 10.9263 12.8449 11.8894 13.2789V13.2789L13.2953 12.4353C13.4048 12.3696 13.5298 12.3343 13.6575 12.3329C13.7851 12.3316 13.9109 12.3642 14.0217 12.4276L15.8599 13.478C15.9546 13.5321 16.0334 13.6104 16.0882 13.7048C16.143 13.7992 16.1719 13.9065 16.1719 14.0156V14.0156C16.17 14.6805 15.9057 15.3177 15.4366 15.7887C14.9674 16.2598 14.3313 16.5266 13.6665 16.5312V16.5312Z" stroke="black" stroke-linecap="round" stroke-linejoin="round"/>
    </symbol>

    <symbol id="social3" viewBox="0 0 23 23" fill="none" xmlns="http://www.w3.org/2000/svg">
    <path d="M7.9064 12.1174L15.9849 19.2265C16.0784 19.3088 16.1916 19.3653 16.3135 19.3907C16.4354 19.416 16.5618 19.4092 16.6803 19.371C16.7988 19.3328 16.9054 19.2645 16.9895 19.1727C17.0736 19.0809 17.1325 18.9689 17.1603 18.8475L20.5397 4.10121C20.5689 3.97371 20.5628 3.84066 20.522 3.71639C20.4811 3.59212 20.4072 3.48134 20.3081 3.39599C20.2089 3.31065 20.0884 3.25397 19.9595 3.23206C19.8305 3.21015 19.698 3.22385 19.5763 3.27168L2.995 9.78575C2.85049 9.84253 2.72825 9.94457 2.64657 10.0766C2.56489 10.2086 2.52816 10.3636 2.54187 10.5182C2.55559 10.6729 2.61902 10.8189 2.72267 10.9345C2.82631 11.0501 2.96461 11.1291 3.11685 11.1595L7.9064 12.1174Z" stroke="black" stroke-linecap="round" stroke-linejoin="round"/>
    <path d="M7.90625 12.1174L20.1351 3.28551" stroke="black" stroke-linecap="round" stroke-linejoin="round"/>
    <path d="M11.9409 15.6679L9.13323 18.4755C9.03271 18.5761 8.90465 18.6445 8.76522 18.6723C8.6258 18.7 8.48128 18.6858 8.34995 18.6314C8.21861 18.577 8.10636 18.4848 8.02738 18.3666C7.94841 18.2484 7.90625 18.1095 7.90625 17.9673V12.1174" stroke="black" stroke-linecap="round" stroke-linejoin="round"/>
    </symbol>

    <symbol id="social4" viewBox="0 0 23 23" fill="none" xmlns="http://www.w3.org/2000/svg">
    <path d="M14.375 11.5L10.0625 8.625V14.375L14.375 11.5Z" stroke="black" stroke-linecap="round" stroke-linejoin="round"/>
    <path d="M2.15625 11.5C2.15625 14.1733 2.43244 15.7419 2.6424 16.548C2.69853 16.7682 2.8063 16.9718 2.95681 17.142C3.10731 17.3122 3.29621 17.4442 3.50785 17.5268C6.51554 18.6826 11.5 18.6509 11.5 18.6509C11.5 18.6509 16.4844 18.6826 19.4921 17.5268C19.7038 17.4442 19.8927 17.3123 20.0432 17.142C20.1937 16.9718 20.3015 16.7682 20.3576 16.548C20.5675 15.7419 20.8438 14.1734 20.8438 11.5C20.8438 8.82665 20.5676 7.25814 20.3576 6.45199C20.3015 6.23182 20.1937 6.02819 20.0432 5.85797C19.8927 5.68776 19.7038 5.55586 19.4921 5.4732C16.4845 4.31738 11.5 4.34912 11.5 4.34912C11.5 4.34912 6.5156 4.31738 3.50788 5.47318C3.29624 5.55584 3.10734 5.68775 2.95683 5.85796C2.80633 6.02817 2.69855 6.2318 2.64242 6.45197C2.43245 7.25812 2.15625 8.82665 2.15625 11.5Z" stroke="black" stroke-linecap="round" stroke-linejoin="round"/>
    </symbol>

    <symbol id="social5" viewBox="0 0 23 23" fill="none" xmlns="http://www.w3.org/2000/svg">
    <path d="M4.31274 17.9688C4.31274 17.9688 7.90649 17.25 8.62524 15.0938C8.62524 15.0938 2.87524 12.9375 4.31274 5.03125C4.31274 5.03125 7.18774 8.625 11.5002 9.34375V7.90651C11.5003 7.08081 11.7847 6.28031 12.3055 5.6396C12.8264 4.99889 13.5519 4.55704 14.3602 4.38833C15.1685 4.21962 16.0102 4.33435 16.7438 4.71321C17.4775 5.09208 18.0583 5.71199 18.3887 6.46872L21.5627 6.46875L18.6877 9.34375C18.6877 14.375 15.094 19.4063 8.62524 19.4063C5.75024 19.4063 4.31274 17.9688 4.31274 17.9688Z" stroke="black" stroke-linecap="round" stroke-linejoin="round"/>
    </symbol>

    <symbol id="footersearch" viewBox="0 0 28 28" fill="none" xmlns="http://www.w3.org/2000/svg">
    <path d="M12.6875 21.875C17.7616 21.875 21.875 17.7616 21.875 12.6875C21.875 7.61338 17.7616 3.5 12.6875 3.5C7.61338 3.5 3.5 7.61338 3.5 12.6875C3.5 17.7616 7.61338 21.875 12.6875 21.875Z" stroke="black" stroke-linecap="round" stroke-linejoin="round"/>
    <path d="M19.1836 19.1844L24.4993 24.5001" stroke="black" stroke-linecap="round" stroke-linejoin="round"/>
    </symbol>

    <symbol id="footerline" viewBox="0 0 19 10" fill="none" xmlns="http://www.w3.org/2000/svg">
    <path d="M17.7627 1.04443L9.39233 9.4148L1.02196 1.04443" stroke="#0000DE" stroke-linecap="round" stroke-linejoin="round"/>
    </symbol>

    <symbol id="visible" viewBox="0 0 19 11" fill="none" xmlns="http://www.w3.org/2000/svg">
    <path d="M17.7627 9.74072L9.39233 1.37035L1.02196 9.74072" stroke="black" stroke-linecap="round" stroke-linejoin="round"/>
    </symbol>

    <symbol id="bluearrow" viewBox="0 0 12 22" fill="none" xmlns="http://www.w3.org/2000/svg">
    <path d="M1 1L11 11L1 21" stroke="#0000DE" stroke-linecap="round" stroke-linejoin="round"/>
    </symbol>

    <symbol id="play" viewBox="0 0 37 42" fill="none" xmlns="http://www.w3.org/2000/svg">
    <path d="M9.52709 1.66312L33.5944 15.5459C37.7479 17.9356 37.7479 23.9098 33.5944 26.2994L9.52709 40.1822C5.43053 42.5719 0.25293 39.6133 0.25293 34.8339V7.01142C0.25293 2.23209 5.43053 -0.726545 9.52709 1.66312Z" fill="white"/>
    </symbol>

</svg>