<svg width="390" height="98" viewBox="0 0 390 98" fill="none" xmlns="http://www.w3.org/2000/svg">
<path d="M26.9997 93.9999L53 16.0004" stroke="#7C83A1" stroke-width="2" stroke-linecap="round"/>
<path d="M53 16L79 53" stroke="#7C83A1" stroke-width="2" stroke-linecap="round"/>
<path d="M79 53L105 39.9998" stroke="#7C83A1" stroke-width="2" stroke-linecap="round"/>
<path d="M105 40L131 73" stroke="#7C83A1" stroke-width="2" stroke-linecap="round"/>
<path d="M131 72.9999L157.001 50.9995" stroke="#7C83A1" stroke-width="2" stroke-linecap="round"/>
<path d="M157 51L183 88" stroke="#7C83A1" stroke-width="2" stroke-linecap="round"/>
<path d="M183 87.9999L209.001 4.99997" stroke="#7C83A1" stroke-width="2" stroke-linecap="round"/>
<path d="M209 5L235 34" stroke="#7C83A1" stroke-width="2" stroke-linecap="round"/>
<path d="M235 34L261 59" stroke="#7C83A1" stroke-width="2" stroke-linecap="round"/>
<path d="M261 58.9999L287 20.9993" stroke="#7C83A1" stroke-width="2" stroke-linecap="round"/>
<path d="M287 20.9999L312.999 95.9999" stroke="#7C83A1" stroke-width="2" stroke-linecap="round"/>
<path d="M313 96.0001L339 41.0001" stroke="#7C83A1" stroke-width="2" stroke-linecap="round"/>
<path d="M339 41L365 61.0002" stroke="#7C83A1" stroke-width="2" stroke-linecap="round"/>
<path d="M365 61.0001L387.999 45.9993" stroke="#7C83A1" stroke-width="2" stroke-linecap="round"/>
<circle cx="26.8682" cy="94" r="1" fill="white" stroke="#7C83A1" stroke-width="2"/>
<circle cx="53" cy="16" r="1" fill="white" stroke="#7C83A1" stroke-width="2"/>
<circle cx="79" cy="53" r="1" fill="white" stroke="#7C83A1" stroke-width="2"/>
<circle cx="105" cy="40" r="1" fill="white" stroke="#7C83A1" stroke-width="2"/>
<circle cx="131" cy="73" r="1" fill="white" stroke="#7C83A1" stroke-width="2"/>
<circle cx="157" cy="51" r="1" fill="white" stroke="#7C83A1" stroke-width="2"/>
<circle cx="183" cy="88" r="1" fill="white" stroke="#7C83A1" stroke-width="2"/>
<circle cx="209" cy="5" r="1" fill="white" stroke="#7C83A1" stroke-width="2"/>
<circle cx="235" cy="34" r="1" fill="white" stroke="#7C83A1" stroke-width="2"/>
<circle cx="261" cy="59" r="1" fill="white" stroke="#7C83A1" stroke-width="2"/>
<circle cx="287" cy="21" r="1" fill="white" stroke="#7C83A1" stroke-width="2"/>
<circle cx="313" cy="96" r="1" fill="white" stroke="#7C83A1" stroke-width="2"/>
<circle cx="339" cy="41" r="1" fill="white" stroke="#7C83A1" stroke-width="2"/>
<circle cx="365" cy="61" r="1" fill="white" stroke="#7C83A1" stroke-width="2"/>
<circle cx="388" cy="46" r="1" fill="white" stroke="#7C83A1" stroke-width="2"/>
</svg>
