<svg width="72" height="224" viewBox="0 0 72 224" fill="none" xmlns="http://www.w3.org/2000/svg">
<g filter="url(#filter0_b_16_413)">
<path d="M71.9994 0C71.9994 0 32.7702 13.2397 30.3919 14.2888C21.3887 18.2257 13.7244 24.6857 8.32944 32.8848C2.93445 41.0839 0.0410829 50.6694 0 60.4778V165.146V224C0 224 39.1291 210.76 41.6325 209.711C50.6087 205.78 58.2537 199.341 63.6461 191.173C69.0386 183.004 71.9482 173.453 72.0245 163.672V104.368L71.9994 0Z" fill="url(#paint0_linear_16_413)" fill-opacity="0.6"/>
<path d="M71.9994 0C71.9994 0 32.7702 13.2397 30.3919 14.2888C21.3887 18.2257 13.7244 24.6857 8.32944 32.8848C2.93445 41.0839 0.0410829 50.6694 0 60.4778V165.146V224C0 224 39.1291 210.76 41.6325 209.711C50.6087 205.78 58.2537 199.341 63.6461 191.173C69.0386 183.004 71.9482 173.453 72.0245 163.672V104.368L71.9994 0Z" fill="#60AAFB" fill-opacity="0.2"/>
<path d="M1.52581 222.956L0.5 223.303V165.146V60.4788C0.540877 50.7679 3.40561 41.2775 8.74713 33.1596C14.0889 25.0415 21.6776 18.6451 30.5923 14.747L30.5938 14.7463C31.1638 14.4948 34.032 13.4803 38.06 12.0861C42.071 10.6977 47.1967 8.94474 52.2487 7.22429C57.3006 5.50388 62.2783 3.81624 65.993 2.55869C67.8504 1.92991 69.392 1.40867 70.4692 1.04462L71.4996 0.696533L71.5245 104.368V104.369V163.67C71.4485 173.354 68.5678 182.81 63.2289 190.897C57.8903 198.984 50.3219 205.358 41.4355 209.252C40.1875 209.773 29.8177 213.333 19.7161 216.776C14.6689 218.496 9.69974 220.184 5.99242 221.441C4.13876 222.07 2.60057 222.591 1.52581 222.956Z" stroke="url(#paint1_linear_16_413)" stroke-opacity="0.6"/>
<path d="M1.52581 222.956L0.5 223.303V165.146V60.4788C0.540877 50.7679 3.40561 41.2775 8.74713 33.1596C14.0889 25.0415 21.6776 18.6451 30.5923 14.747L30.5938 14.7463C31.1638 14.4948 34.032 13.4803 38.06 12.0861C42.071 10.6977 47.1967 8.94474 52.2487 7.22429C57.3006 5.50388 62.2783 3.81624 65.993 2.55869C67.8504 1.92991 69.392 1.40867 70.4692 1.04462L71.4996 0.696533L71.5245 104.368V104.369V163.67C71.4485 173.354 68.5678 182.81 63.2289 190.897C57.8903 198.984 50.3219 205.358 41.4355 209.252C40.1875 209.773 29.8177 213.333 19.7161 216.776C14.6689 218.496 9.69974 220.184 5.99242 221.441C4.13876 222.07 2.60057 222.591 1.52581 222.956Z" stroke="url(#paint2_linear_16_413)"/>
</g>
<defs>
<filter id="filter0_b_16_413" x="-26" y="-26" width="124.024" height="276" filterUnits="userSpaceOnUse" color-interpolation-filters="sRGB">
<feFlood flood-opacity="0" result="BackgroundImageFix"/>
<feGaussianBlur in="BackgroundImage" stdDeviation="13"/>
<feComposite in2="SourceAlpha" operator="in" result="effect1_backgroundBlur_16_413"/>
<feBlend mode="normal" in="SourceGraphic" in2="effect1_backgroundBlur_16_413" result="shape"/>
</filter>
<linearGradient id="paint0_linear_16_413" x1="36.0122" y1="0" x2="120.687" y2="20.2201" gradientUnits="userSpaceOnUse">
<stop stop-color="white" stop-opacity="0.2"/>
<stop offset="1" stop-color="white" stop-opacity="0"/>
</linearGradient>
<linearGradient id="paint1_linear_16_413" x1="85.836" y1="89.5478" x2="61.2181" y2="89.799" gradientUnits="userSpaceOnUse">
<stop stop-color="white"/>
<stop offset="1" stop-color="#EFEFEF" stop-opacity="0"/>
</linearGradient>
<linearGradient id="paint2_linear_16_413" x1="0" y1="0" x2="36.3206" y2="6.20769" gradientUnits="userSpaceOnUse">
<stop stop-color="white" stop-opacity="0.5"/>
<stop offset="1" stop-color="white" stop-opacity="0"/>
</linearGradient>
</defs>
</svg>
