<svg width="144" height="205" viewBox="0 0 144 205" fill="none" xmlns="http://www.w3.org/2000/svg">
<g filter="url(#filter0_bd_32_2095)">
<path d="M52.3206 36.269C43.3578 40.1987 35.7249 46.6418 30.344 54.8194C24.9632 62.9971 22.0651 72.5592 22 82.3498V86.9479V168.714C22 168.714 61.112 155.469 63.5097 154.445C72.4687 150.51 80.0982 144.066 85.4783 135.889C90.8584 127.713 93.759 118.153 93.8303 108.364V106.515V22C93.8303 22 54.6933 35.2445 52.3206 36.269Z" fill="url(#paint0_linear_32_2095)" fill-opacity="0.6" shape-rendering="crispEdges"/>
<path d="M52.3206 36.269C43.3578 40.1987 35.7249 46.6418 30.344 54.8194C24.9632 62.9971 22.0651 72.5592 22 82.3498V86.9479V168.714C22 168.714 61.112 155.469 63.5097 154.445C72.4687 150.51 80.0982 144.066 85.4783 135.889C90.8584 127.713 93.759 118.153 93.8303 108.364V106.515V22C93.8303 22 54.6933 35.2445 52.3206 36.269Z" fill="#6685FF" fill-opacity="0.3" shape-rendering="crispEdges"/>
<path d="M92.3044 23.0447L93.3303 22.6972V106.515V108.362C93.2593 118.054 90.3873 127.519 85.0606 135.614C79.734 143.71 72.1803 150.09 63.3106 153.986C62.1215 154.493 51.7826 158.047 41.6942 161.49C36.6557 163.21 31.692 164.897 27.988 166.155C26.1359 166.784 24.5988 167.305 23.5247 167.669L22.5 168.016V86.9479V82.3515C22.5648 72.658 25.4342 63.1908 30.7617 55.0943C36.0892 46.9977 43.6464 40.6184 52.52 36.7275C53.6885 36.2236 64.03 32.6681 74.1266 29.2235C79.1667 27.504 84.1327 25.8166 87.8387 24.5589C89.6917 23.9301 91.2297 23.4088 92.3044 23.0447Z" stroke="url(#paint1_linear_32_2095)" stroke-opacity="0.6" shape-rendering="crispEdges"/>
<path d="M92.3044 23.0447L93.3303 22.6972V106.515V108.362C93.2593 118.054 90.3873 127.519 85.0606 135.614C79.734 143.71 72.1803 150.09 63.3106 153.986C62.1215 154.493 51.7826 158.047 41.6942 161.49C36.6557 163.21 31.692 164.897 27.988 166.155C26.1359 166.784 24.5988 167.305 23.5247 167.669L22.5 168.016V86.9479V82.3515C22.5648 72.658 25.4342 63.1908 30.7617 55.0943C36.0892 46.9977 43.6464 40.6184 52.52 36.7275C53.6885 36.2236 64.03 32.6681 74.1266 29.2235C79.1667 27.504 84.1327 25.8166 87.8387 24.5589C89.6917 23.9301 91.2297 23.4088 92.3044 23.0447Z" stroke="url(#paint2_linear_32_2095)" shape-rendering="crispEdges"/>
</g>
<g filter="url(#filter1_bd_32_2095)">
<path d="M84.816 75.249C77.7738 78.3272 71.7765 83.3745 67.5487 89.7805C63.3209 96.1865 61.0438 103.677 60.9927 111.346V114.948V179C60.9927 179 91.7236 168.625 93.6075 167.822C100.647 164.74 106.641 159.692 110.868 153.287C115.096 146.881 117.375 139.393 117.431 131.725V130.276V64.0713C117.431 64.0713 86.6802 74.4464 84.816 75.249Z" fill="url(#paint3_linear_32_2095)" fill-opacity="0.6" shape-rendering="crispEdges"/>
<path d="M84.816 75.249C77.7738 78.3272 71.7765 83.3745 67.5487 89.7805C63.3209 96.1865 61.0438 103.677 60.9927 111.346V114.948V179C60.9927 179 91.7236 168.625 93.6075 167.822C100.647 164.74 106.641 159.692 110.868 153.287C115.096 146.881 117.375 139.393 117.431 131.725V130.276V64.0713C117.431 64.0713 86.6802 74.4464 84.816 75.249Z" fill="#2020EB" fill-opacity="0.3" shape-rendering="crispEdges"/>
<path d="M116.266 64.9924L116.931 64.7678V130.276V131.723C116.875 139.294 114.625 146.687 110.451 153.011C106.278 159.335 100.359 164.319 93.4089 167.363C92.4774 167.759 84.3618 170.541 76.4325 173.239C72.4738 174.586 68.5738 175.907 65.6635 176.893C64.2083 177.385 63.0006 177.794 62.1567 178.079L61.4927 178.303V114.948V111.348C61.5435 103.776 63.7918 96.3807 67.966 90.0559C72.1403 83.731 78.0617 78.7474 85.0149 75.7077C85.9291 75.3147 94.047 72.532 101.983 69.8325C105.943 68.4856 109.845 67.1637 112.757 66.1786C114.213 65.686 115.421 65.2776 116.266 64.9924Z" stroke="url(#paint4_linear_32_2095)" stroke-opacity="0.6" shape-rendering="crispEdges"/>
<path d="M116.266 64.9924L116.931 64.7678V130.276V131.723C116.875 139.294 114.625 146.687 110.451 153.011C106.278 159.335 100.359 164.319 93.4089 167.363C92.4774 167.759 84.3618 170.541 76.4325 173.239C72.4738 174.586 68.5738 175.907 65.6635 176.893C64.2083 177.385 63.0006 177.794 62.1567 178.079L61.4927 178.303V114.948V111.348C61.5435 103.776 63.7918 96.3807 67.966 90.0559C72.1403 83.731 78.0617 78.7474 85.0149 75.7077C85.9291 75.3147 94.047 72.532 101.983 69.8325C105.943 68.4856 109.845 67.1637 112.757 66.1786C114.213 65.686 115.421 65.2776 116.266 64.9924Z" stroke="url(#paint5_linear_32_2095)" shape-rendering="crispEdges"/>
</g>
<g clip-path="url(#clip0_32_2095)">
<path d="M60.2742 81.8584L84.3415 95.7412C88.4949 98.1309 88.4949 104.105 84.3415 106.495L60.2742 120.378C56.1776 122.767 51 119.809 51 115.029V87.2067C51 82.4274 56.1776 79.4688 60.2742 81.8584Z" fill="white"/>
</g>
<defs>
<filter id="filter0_bd_32_2095" x="0" y="0" width="119.83" height="194.714" filterUnits="userSpaceOnUse" color-interpolation-filters="sRGB">
<feFlood flood-opacity="0" result="BackgroundImageFix"/>
<feGaussianBlur in="BackgroundImage" stdDeviation="8"/>
<feComposite in2="SourceAlpha" operator="in" result="effect1_backgroundBlur_32_2095"/>
<feColorMatrix in="SourceAlpha" type="matrix" values="0 0 0 0 0 0 0 0 0 0 0 0 0 0 0 0 0 0 127 0" result="hardAlpha"/>
<feOffset dx="2" dy="2"/>
<feGaussianBlur stdDeviation="12"/>
<feComposite in2="hardAlpha" operator="out"/>
<feColorMatrix type="matrix" values="0 0 0 0 0 0 0 0 0 0 0 0 0 0 0 0 0 0 0.15 0"/>
<feBlend mode="normal" in2="effect1_backgroundBlur_32_2095" result="effect2_dropShadow_32_2095"/>
<feBlend mode="normal" in="SourceGraphic" in2="effect2_dropShadow_32_2095" result="shape"/>
</filter>
<filter id="filter1_bd_32_2095" x="38.9927" y="42.0713" width="104.438" height="162.929" filterUnits="userSpaceOnUse" color-interpolation-filters="sRGB">
<feFlood flood-opacity="0" result="BackgroundImageFix"/>
<feGaussianBlur in="BackgroundImage" stdDeviation="8"/>
<feComposite in2="SourceAlpha" operator="in" result="effect1_backgroundBlur_32_2095"/>
<feColorMatrix in="SourceAlpha" type="matrix" values="0 0 0 0 0 0 0 0 0 0 0 0 0 0 0 0 0 0 127 0" result="hardAlpha"/>
<feOffset dx="2" dy="2"/>
<feGaussianBlur stdDeviation="12"/>
<feComposite in2="hardAlpha" operator="out"/>
<feColorMatrix type="matrix" values="0 0 0 0 0 0 0 0 0 0 0 0 0 0 0 0 0 0 0.15 0"/>
<feBlend mode="normal" in2="effect1_backgroundBlur_32_2095" result="effect2_dropShadow_32_2095"/>
<feBlend mode="normal" in="SourceGraphic" in2="effect2_dropShadow_32_2095" result="shape"/>
</filter>
<linearGradient id="paint0_linear_32_2095" x1="57.9151" y1="22" x2="136.754" y2="50.6664" gradientUnits="userSpaceOnUse">
<stop stop-color="white" stop-opacity="0.2"/>
<stop offset="1" stop-color="white" stop-opacity="0"/>
</linearGradient>
<linearGradient id="paint1_linear_32_2095" x1="107.605" y1="80.6513" x2="83.0565" y2="81.0328" gradientUnits="userSpaceOnUse">
<stop stop-color="white"/>
<stop offset="1" stop-color="#EFEFEF" stop-opacity="0"/>
</linearGradient>
<linearGradient id="paint2_linear_32_2095" x1="22" y1="22" x2="56.916" y2="31.0867" gradientUnits="userSpaceOnUse">
<stop stop-color="white" stop-opacity="0.5"/>
<stop offset="1" stop-color="white" stop-opacity="0"/>
</linearGradient>
<linearGradient id="paint3_linear_32_2095" x1="89.2117" y1="64.0713" x2="151.112" y2="86.6469" gradientUnits="userSpaceOnUse">
<stop stop-color="white" stop-opacity="0.2"/>
<stop offset="1" stop-color="white" stop-opacity="0"/>
</linearGradient>
<linearGradient id="paint4_linear_32_2095" x1="128.253" y1="110.016" x2="108.966" y2="110.317" gradientUnits="userSpaceOnUse">
<stop stop-color="white"/>
<stop offset="1" stop-color="#EFEFEF" stop-opacity="0"/>
</linearGradient>
<linearGradient id="paint5_linear_32_2095" x1="60.9927" y1="64.0713" x2="88.4162" y2="71.2296" gradientUnits="userSpaceOnUse">
<stop stop-color="white" stop-opacity="0.5"/>
<stop offset="1" stop-color="white" stop-opacity="0"/>
</linearGradient>
<clipPath id="clip0_32_2095">
<rect width="36.4708" height="40.2259" fill="white" transform="translate(51 81)"/>
</clipPath>
</defs>
</svg>
