<svg width="96" height="196" viewBox="0 0 96 196" fill="none" xmlns="http://www.w3.org/2000/svg">
<g filter="url(#filter0_b_16_407)">
<path d="M40.5226 19.0755C28.5442 24.3288 18.3429 32.9422 11.1516 43.8745C3.96019 54.8068 0.0869792 67.5899 0 80.6784V86.8253V196.134C0 196.134 52.2722 178.428 55.4766 177.058C67.45 171.798 77.6467 163.183 84.8371 152.252C92.0274 141.321 95.9039 128.542 95.9992 115.455V112.983V0C95.9992 0 43.6937 17.7058 40.5226 19.0755Z" fill="url(#paint0_linear_16_407)" fill-opacity="0.6"/>
<path d="M40.5226 19.0755C28.5442 24.3288 18.3429 32.9422 11.1516 43.8745C3.96019 54.8068 0.0869792 67.5899 0 80.6784V86.8253V196.134C0 196.134 52.2722 178.428 55.4766 177.058C67.45 171.798 77.6467 163.183 84.8371 152.252C92.0274 141.321 95.9039 128.542 95.9992 115.455V112.983V0C95.9992 0 43.6937 17.7058 40.5226 19.0755Z" fill="#60AAFB" fill-opacity="0.2"/>
<path d="M93.906 1.23702L95.4992 0.697217V112.983V115.454C95.4042 128.443 91.5563 141.128 84.4193 151.977C77.2826 162.827 67.1622 171.378 55.2785 176.599C53.6916 177.277 39.8576 182.034 26.3751 186.636C19.6411 188.935 13.0072 191.191 8.05681 192.872C5.5816 193.713 3.52727 194.41 2.09176 194.897L0.5 195.436V86.8253V80.68C0.586654 67.6886 4.43128 55.0005 11.5693 44.1493C18.7073 33.2981 28.8328 24.7485 40.7222 19.534C42.2901 18.8574 56.1231 14.1003 69.6115 9.49732C76.3476 7.19861 82.9846 4.94267 87.9376 3.2614C90.4141 2.42077 92.4696 1.72381 93.906 1.23702Z" stroke="url(#paint1_linear_16_407)" stroke-opacity="0.6"/>
<path d="M93.906 1.23702L95.4992 0.697217V112.983V115.454C95.4042 128.443 91.5563 141.128 84.4193 151.977C77.2826 162.827 67.1622 171.378 55.2785 176.599C53.6916 177.277 39.8576 182.034 26.3751 186.636C19.6411 188.935 13.0072 191.191 8.05681 192.872C5.5816 193.713 3.52727 194.41 2.09176 194.897L0.5 195.436V86.8253V80.68C0.586654 67.6886 4.43128 55.0005 11.5693 44.1493C18.7073 33.2981 28.8328 24.7485 40.7222 19.534C42.2901 18.8574 56.1231 14.1003 69.6115 9.49732C76.3476 7.19861 82.9846 4.94267 87.9376 3.2614C90.4141 2.42077 92.4696 1.72381 93.906 1.23702Z" stroke="url(#paint2_linear_16_407)"/>
</g>
<defs>
<filter id="filter0_b_16_407" x="-26" y="-26" width="147.999" height="248.134" filterUnits="userSpaceOnUse" color-interpolation-filters="sRGB">
<feFlood flood-opacity="0" result="BackgroundImageFix"/>
<feGaussianBlur in="BackgroundImage" stdDeviation="13"/>
<feComposite in2="SourceAlpha" operator="in" result="effect1_backgroundBlur_16_407"/>
<feBlend mode="normal" in="SourceGraphic" in2="effect1_backgroundBlur_16_407" result="shape"/>
</filter>
<linearGradient id="paint0_linear_16_407" x1="47.9996" y1="0" x2="153.372" y2="38.3037" gradientUnits="userSpaceOnUse">
<stop stop-color="white" stop-opacity="0.2"/>
<stop offset="1" stop-color="white" stop-opacity="0"/>
</linearGradient>
<linearGradient id="paint1_linear_16_407" x1="114.408" y1="78.4077" x2="81.6003" y2="78.9174" gradientUnits="userSpaceOnUse">
<stop stop-color="white"/>
<stop offset="1" stop-color="#EFEFEF" stop-opacity="0"/>
</linearGradient>
<linearGradient id="paint2_linear_16_407" x1="0" y1="0" x2="46.6659" y2="12.1412" gradientUnits="userSpaceOnUse">
<stop stop-color="white" stop-opacity="0.5"/>
<stop offset="1" stop-color="white" stop-opacity="0"/>
</linearGradient>
</defs>
</svg>
